# Blender 4.2.1 LTS
# www.blender.org
o Cone.007
v 0.000000 -1.000000 -1.000000
v 0.016362 -1.000000 -0.999866
v 0.032719 -1.000000 -0.999465
v 0.049068 -1.000000 -0.998795
v 0.065403 -1.000000 -0.997859
v 0.081721 -1.000000 -0.996655
v 0.098017 -1.000000 -0.995185
v 0.114287 -1.000000 -0.993448
v 0.130526 -1.000000 -0.991445
v 0.146730 -1.000000 -0.989177
v 0.162895 -1.000000 -0.986643
v 0.179017 -1.000000 -0.983846
v 0.195090 -1.000000 -0.980785
v 0.211112 -1.000000 -0.977462
v 0.227076 -1.000000 -0.973877
v 0.242980 -1.000000 -0.970031
v 0.258819 -1.000000 -0.965926
v 0.274589 -1.000000 -0.961562
v 0.290285 -1.000000 -0.956940
v 0.305903 -1.000000 -0.952063
v 0.321439 -1.000000 -0.946930
v 0.336890 -1.000000 -0.941544
v 0.352250 -1.000000 -0.935906
v 0.367516 -1.000000 -0.930017
v 0.382683 -1.000000 -0.923880
v 0.397748 -1.000000 -0.917494
v 0.412707 -1.000000 -0.910864
v 0.427555 -1.000000 -0.903989
v 0.442289 -1.000000 -0.896873
v 0.456904 -1.000000 -0.889516
v 0.471397 -1.000000 -0.881921
v 0.485763 -1.000000 -0.874090
v 0.500000 -1.000000 -0.866025
v 0.514103 -1.000000 -0.857729
v 0.528068 -1.000000 -0.849202
v 0.541892 -1.000000 -0.840448
v 0.555570 -1.000000 -0.831470
v 0.569100 -1.000000 -0.822268
v 0.582478 -1.000000 -0.812847
v 0.595699 -1.000000 -0.803208
v 0.608761 -1.000000 -0.793353
v 0.621661 -1.000000 -0.783287
v 0.634393 -1.000000 -0.773010
v 0.646956 -1.000000 -0.762527
v 0.659346 -1.000000 -0.751840
v 0.671559 -1.000000 -0.740951
v 0.683592 -1.000000 -0.729864
v 0.695443 -1.000000 -0.718582
v 0.707107 -1.000000 -0.707107
v 0.718582 -1.000000 -0.695443
v 0.729864 -1.000000 -0.683592
v 0.740951 -1.000000 -0.671559
v 0.751840 -1.000000 -0.659346
v 0.762527 -1.000000 -0.646956
v 0.773010 -1.000000 -0.634393
v 0.783287 -1.000000 -0.621661
v 0.793353 -1.000000 -0.608761
v 0.803208 -1.000000 -0.595699
v 0.812847 -1.000000 -0.582478
v 0.822268 -1.000000 -0.569100
v 0.831470 -1.000000 -0.555570
v 0.840448 -1.000000 -0.541892
v 0.849202 -1.000000 -0.528068
v 0.857729 -1.000000 -0.514103
v 0.866025 -1.000000 -0.500000
v 0.874090 -1.000000 -0.485763
v 0.881921 -1.000000 -0.471397
v 0.889516 -1.000000 -0.456904
v 0.896873 -1.000000 -0.442289
v 0.903989 -1.000000 -0.427555
v 0.910864 -1.000000 -0.412707
v 0.917494 -1.000000 -0.397748
v 0.923880 -1.000000 -0.382683
v 0.930017 -1.000000 -0.367516
v 0.935906 -1.000000 -0.352250
v 0.941544 -1.000000 -0.336890
v 0.946930 -1.000000 -0.321439
v 0.952063 -1.000000 -0.305903
v 0.956940 -1.000000 -0.290285
v 0.961562 -1.000000 -0.274589
v 0.965926 -1.000000 -0.258819
v 0.970031 -1.000000 -0.242980
v 0.973877 -1.000000 -0.227076
v 0.977462 -1.000000 -0.211112
v 0.980785 -1.000000 -0.195090
v 0.983846 -1.000000 -0.179017
v 0.986643 -1.000000 -0.162895
v 0.989177 -1.000000 -0.146730
v 0.991445 -1.000000 -0.130526
v 0.993448 -1.000000 -0.114287
v 0.995185 -1.000000 -0.098017
v 0.996655 -1.000000 -0.081721
v 0.997859 -1.000000 -0.065403
v 0.998795 -1.000000 -0.049068
v 0.999465 -1.000000 -0.032719
v 0.999866 -1.000000 -0.016362
v 1.000000 -1.000000 0.000000
v 0.999866 -1.000000 0.016362
v 0.999465 -1.000000 0.032719
v 0.998795 -1.000000 0.049068
v 0.997859 -1.000000 0.065403
v 0.996655 -1.000000 0.081721
v 0.995185 -1.000000 0.098017
v 0.993448 -1.000000 0.114287
v 0.991445 -1.000000 0.130526
v 0.989177 -1.000000 0.146730
v 0.986643 -1.000000 0.162895
v 0.983846 -1.000000 0.179017
v 0.980785 -1.000000 0.195090
v 0.977462 -1.000000 0.211112
v 0.973877 -1.000000 0.227076
v 0.970031 -1.000000 0.242980
v 0.965926 -1.000000 0.258819
v 0.961562 -1.000000 0.274589
v 0.956940 -1.000000 0.290285
v 0.952063 -1.000000 0.305903
v 0.946930 -1.000000 0.321439
v 0.941544 -1.000000 0.336890
v 0.935906 -1.000000 0.352250
v 0.930017 -1.000000 0.367516
v 0.923880 -1.000000 0.382683
v 0.917494 -1.000000 0.397748
v 0.910864 -1.000000 0.412707
v 0.903989 -1.000000 0.427555
v 0.896873 -1.000000 0.442289
v 0.889516 -1.000000 0.456904
v 0.881921 -1.000000 0.471397
v 0.874090 -1.000000 0.485763
v 0.866025 -1.000000 0.500000
v 0.857729 -1.000000 0.514103
v 0.849202 -1.000000 0.528068
v 0.840448 -1.000000 0.541892
v 0.831470 -1.000000 0.555570
v 0.822268 -1.000000 0.569100
v 0.812847 -1.000000 0.582478
v 0.803208 -1.000000 0.595699
v 0.793353 -1.000000 0.608761
v 0.783287 -1.000000 0.621661
v 0.773010 -1.000000 0.634393
v 0.762527 -1.000000 0.646956
v 0.751840 -1.000000 0.659346
v 0.740951 -1.000000 0.671559
v 0.729864 -1.000000 0.683592
v 0.718582 -1.000000 0.695443
v 0.707107 -1.000000 0.707107
v 0.695443 -1.000000 0.718582
v 0.683592 -1.000000 0.729864
v 0.671559 -1.000000 0.740951
v 0.659346 -1.000000 0.751840
v 0.646956 -1.000000 0.762527
v 0.634393 -1.000000 0.773010
v 0.621661 -1.000000 0.783287
v 0.608761 -1.000000 0.793353
v 0.595699 -1.000000 0.803208
v 0.582478 -1.000000 0.812847
v 0.569100 -1.000000 0.822268
v 0.555570 -1.000000 0.831470
v 0.541892 -1.000000 0.840448
v 0.528068 -1.000000 0.849202
v 0.514103 -1.000000 0.857729
v 0.500000 -1.000000 0.866025
v 0.485763 -1.000000 0.874090
v 0.471397 -1.000000 0.881921
v 0.456904 -1.000000 0.889516
v 0.442289 -1.000000 0.896873
v 0.427555 -1.000000 0.903989
v 0.412707 -1.000000 0.910864
v 0.397748 -1.000000 0.917494
v 0.382683 -1.000000 0.923880
v 0.367516 -1.000000 0.930017
v 0.352250 -1.000000 0.935906
v 0.336890 -1.000000 0.941544
v 0.321439 -1.000000 0.946930
v 0.305903 -1.000000 0.952063
v 0.290285 -1.000000 0.956940
v 0.274589 -1.000000 0.961562
v 0.258819 -1.000000 0.965926
v 0.242980 -1.000000 0.970031
v 0.227076 -1.000000 0.973877
v 0.211112 -1.000000 0.977462
v 0.195090 -1.000000 0.980785
v 0.179017 -1.000000 0.983846
v 0.162895 -1.000000 0.986643
v 0.146730 -1.000000 0.989177
v 0.130526 -1.000000 0.991445
v 0.114287 -1.000000 0.993448
v 0.098017 -1.000000 0.995185
v 0.081721 -1.000000 0.996655
v 0.065403 -1.000000 0.997859
v 0.049068 -1.000000 0.998795
v 0.032719 -1.000000 0.999465
v 0.016362 -1.000000 0.999866
v 0.000000 -1.000000 1.000000
v -0.016362 -1.000000 0.999866
v -0.032719 -1.000000 0.999465
v -0.049068 -1.000000 0.998795
v -0.065403 -1.000000 0.997859
v -0.081721 -1.000000 0.996655
v -0.098017 -1.000000 0.995185
v -0.114287 -1.000000 0.993448
v -0.130526 -1.000000 0.991445
v -0.146730 -1.000000 0.989177
v -0.162895 -1.000000 0.986643
v -0.179017 -1.000000 0.983846
v -0.195090 -1.000000 0.980785
v -0.211112 -1.000000 0.977462
v -0.227076 -1.000000 0.973877
v -0.242980 -1.000000 0.970031
v -0.258819 -1.000000 0.965926
v -0.274589 -1.000000 0.961562
v -0.290285 -1.000000 0.956940
v -0.305903 -1.000000 0.952063
v -0.321439 -1.000000 0.946930
v -0.336890 -1.000000 0.941544
v -0.352250 -1.000000 0.935906
v -0.367516 -1.000000 0.930017
v -0.382683 -1.000000 0.923880
v -0.397748 -1.000000 0.917494
v -0.412707 -1.000000 0.910864
v -0.427555 -1.000000 0.903989
v -0.442289 -1.000000 0.896873
v -0.456904 -1.000000 0.889516
v -0.471397 -1.000000 0.881921
v -0.485763 -1.000000 0.874090
v -0.500000 -1.000000 0.866025
v -0.514103 -1.000000 0.857729
v -0.528068 -1.000000 0.849202
v -0.541892 -1.000000 0.840448
v -0.555570 -1.000000 0.831470
v -0.569100 -1.000000 0.822268
v -0.582478 -1.000000 0.812847
v -0.595699 -1.000000 0.803208
v -0.608761 -1.000000 0.793353
v -0.621661 -1.000000 0.783287
v -0.634393 -1.000000 0.773010
v -0.646956 -1.000000 0.762527
v -0.659346 -1.000000 0.751840
v -0.671559 -1.000000 0.740951
v -0.683592 -1.000000 0.729864
v -0.695443 -1.000000 0.718582
v -0.707107 -1.000000 0.707107
v -0.718582 -1.000000 0.695443
v -0.729864 -1.000000 0.683592
v -0.740951 -1.000000 0.671559
v -0.751840 -1.000000 0.659346
v -0.762527 -1.000000 0.646956
v -0.773010 -1.000000 0.634393
v -0.783287 -1.000000 0.621661
v -0.793353 -1.000000 0.608761
v -0.803208 -1.000000 0.595699
v -0.812847 -1.000000 0.582478
v -0.822268 -1.000000 0.569100
v -0.831470 -1.000000 0.555570
v -0.840448 -1.000000 0.541892
v -0.849202 -1.000000 0.528068
v -0.857729 -1.000000 0.514103
v -0.866025 -1.000000 0.500000
v -0.874090 -1.000000 0.485763
v -0.881921 -1.000000 0.471397
v -0.889516 -1.000000 0.456904
v -0.896873 -1.000000 0.442289
v -0.903989 -1.000000 0.427555
v -0.910864 -1.000000 0.412707
v -0.917494 -1.000000 0.397748
v -0.923880 -1.000000 0.382683
v -0.930017 -1.000000 0.367516
v -0.935906 -1.000000 0.352250
v -0.941544 -1.000000 0.336890
v -0.946930 -1.000000 0.321439
v -0.952063 -1.000000 0.305903
v -0.956940 -1.000000 0.290285
v -0.961562 -1.000000 0.274589
v -0.965926 -1.000000 0.258819
v -0.970031 -1.000000 0.242980
v -0.973877 -1.000000 0.227076
v -0.977462 -1.000000 0.211112
v -0.980785 -1.000000 0.195090
v -0.983846 -1.000000 0.179017
v -0.986643 -1.000000 0.162895
v -0.989177 -1.000000 0.146730
v -0.991445 -1.000000 0.130526
v -0.993448 -1.000000 0.114287
v -0.995185 -1.000000 0.098017
v -0.996655 -1.000000 0.081721
v -0.997859 -1.000000 0.065403
v -0.998795 -1.000000 0.049068
v -0.999465 -1.000000 0.032719
v -0.999866 -1.000000 0.016362
v -1.000000 -1.000000 0.000000
v -0.999866 -1.000000 -0.016362
v -0.999465 -1.000000 -0.032719
v -0.998795 -1.000000 -0.049068
v -0.997859 -1.000000 -0.065403
v -0.996655 -1.000000 -0.081721
v -0.995185 -1.000000 -0.098017
v -0.993448 -1.000000 -0.114287
v -0.991445 -1.000000 -0.130526
v -0.989177 -1.000000 -0.146730
v -0.986643 -1.000000 -0.162895
v -0.983846 -1.000000 -0.179017
v -0.980785 -1.000000 -0.195090
v -0.977462 -1.000000 -0.211112
v -0.973877 -1.000000 -0.227076
v -0.970031 -1.000000 -0.242980
v -0.965926 -1.000000 -0.258819
v -0.961562 -1.000000 -0.274589
v -0.956940 -1.000000 -0.290285
v -0.952063 -1.000000 -0.305903
v -0.946930 -1.000000 -0.321439
v -0.941544 -1.000000 -0.336890
v -0.935906 -1.000000 -0.352250
v -0.930017 -1.000000 -0.367516
v -0.923880 -1.000000 -0.382683
v -0.917494 -1.000000 -0.397748
v -0.910864 -1.000000 -0.412707
v -0.903989 -1.000000 -0.427555
v -0.896873 -1.000000 -0.442289
v -0.889516 -1.000000 -0.456904
v -0.881921 -1.000000 -0.471397
v -0.874090 -1.000000 -0.485763
v -0.866025 -1.000000 -0.500000
v -0.857729 -1.000000 -0.514103
v -0.849202 -1.000000 -0.528068
v -0.840448 -1.000000 -0.541892
v -0.831470 -1.000000 -0.555570
v -0.822268 -1.000000 -0.569100
v -0.812847 -1.000000 -0.582478
v -0.803208 -1.000000 -0.595699
v -0.793353 -1.000000 -0.608761
v -0.783287 -1.000000 -0.621661
v -0.773010 -1.000000 -0.634393
v -0.762527 -1.000000 -0.646956
v -0.751840 -1.000000 -0.659346
v -0.740951 -1.000000 -0.671559
v -0.729864 -1.000000 -0.683592
v -0.718582 -1.000000 -0.695443
v -0.707107 -1.000000 -0.707107
v -0.695443 -1.000000 -0.718582
v -0.683592 -1.000000 -0.729864
v -0.671559 -1.000000 -0.740951
v -0.659346 -1.000000 -0.751840
v -0.646956 -1.000000 -0.762527
v -0.634393 -1.000000 -0.773010
v -0.621661 -1.000000 -0.783287
v -0.608761 -1.000000 -0.793353
v -0.595699 -1.000000 -0.803208
v -0.582478 -1.000000 -0.812847
v -0.569100 -1.000000 -0.822268
v -0.555570 -1.000000 -0.831470
v -0.541892 -1.000000 -0.840448
v -0.528068 -1.000000 -0.849202
v -0.514103 -1.000000 -0.857729
v -0.500000 -1.000000 -0.866025
v -0.485763 -1.000000 -0.874090
v -0.471397 -1.000000 -0.881921
v -0.456904 -1.000000 -0.889516
v -0.442289 -1.000000 -0.896873
v -0.427555 -1.000000 -0.903989
v -0.412707 -1.000000 -0.910864
v -0.397748 -1.000000 -0.917494
v -0.382683 -1.000000 -0.923880
v -0.367516 -1.000000 -0.930017
v -0.352250 -1.000000 -0.935906
v -0.336890 -1.000000 -0.941544
v -0.321439 -1.000000 -0.946930
v -0.305903 -1.000000 -0.952063
v -0.290285 -1.000000 -0.956940
v -0.274589 -1.000000 -0.961562
v -0.258819 -1.000000 -0.965926
v -0.242980 -1.000000 -0.970031
v -0.227076 -1.000000 -0.973877
v -0.211112 -1.000000 -0.977462
v -0.195090 -1.000000 -0.980785
v -0.179017 -1.000000 -0.983846
v -0.162895 -1.000000 -0.986643
v -0.146730 -1.000000 -0.989177
v -0.130526 -1.000000 -0.991445
v -0.114287 -1.000000 -0.993448
v -0.098017 -1.000000 -0.995185
v -0.081721 -1.000000 -0.996655
v -0.065403 -1.000000 -0.997859
v -0.049068 -1.000000 -0.998795
v -0.032719 -1.000000 -0.999465
v -0.016362 -1.000000 -0.999866
v 0.000000 1.000000 0.000000
vn 0.0073 0.4472 -0.8944
vn 0.0220 0.4472 -0.8942
vn 0.0366 0.4472 -0.8937
vn 0.0512 0.4472 -0.8930
vn 0.0658 0.4472 -0.8920
vn 0.0804 0.4472 -0.8908
vn 0.0949 0.4472 -0.8894
vn 0.1095 0.4472 -0.8877
vn 0.1240 0.4472 -0.8858
vn 0.1385 0.4472 -0.8836
vn 0.1529 0.4472 -0.8813
vn 0.1673 0.4472 -0.8786
vn 0.1817 0.4472 -0.8758
vn 0.1960 0.4472 -0.8727
vn 0.2102 0.4472 -0.8694
vn 0.2244 0.4472 -0.8658
vn 0.2386 0.4472 -0.8620
vn 0.2526 0.4472 -0.8580
vn 0.2666 0.4472 -0.8538
vn 0.2806 0.4472 -0.8493
vn 0.2944 0.4472 -0.8446
vn 0.3082 0.4472 -0.8397
vn 0.3219 0.4472 -0.8345
vn 0.3355 0.4472 -0.8291
vn 0.3490 0.4472 -0.8235
vn 0.3625 0.4472 -0.8177
vn 0.3758 0.4472 -0.8117
vn 0.3890 0.4472 -0.8054
vn 0.4021 0.4472 -0.7989
vn 0.4152 0.4472 -0.7922
vn 0.4281 0.4472 -0.7853
vn 0.4409 0.4472 -0.7782
vn 0.4535 0.4472 -0.7709
vn 0.4661 0.4472 -0.7634
vn 0.4785 0.4472 -0.7557
vn 0.4908 0.4472 -0.7477
vn 0.5030 0.4472 -0.7396
vn 0.5150 0.4472 -0.7313
vn 0.5269 0.4472 -0.7227
vn 0.5387 0.4472 -0.7140
vn 0.5503 0.4472 -0.7051
vn 0.5617 0.4472 -0.6960
vn 0.5731 0.4472 -0.6867
vn 0.5842 0.4472 -0.6773
vn 0.5952 0.4472 -0.6676
vn 0.6061 0.4472 -0.6578
vn 0.6167 0.4472 -0.6478
vn 0.6273 0.4472 -0.6376
vn 0.6376 0.4472 -0.6273
vn 0.6478 0.4472 -0.6167
vn 0.6578 0.4472 -0.6061
vn 0.6676 0.4472 -0.5952
vn 0.6773 0.4472 -0.5842
vn 0.6867 0.4472 -0.5731
vn 0.6960 0.4472 -0.5617
vn 0.7051 0.4472 -0.5503
vn 0.7140 0.4472 -0.5387
vn 0.7227 0.4472 -0.5269
vn 0.7313 0.4472 -0.5150
vn 0.7396 0.4472 -0.5030
vn 0.7477 0.4472 -0.4908
vn 0.7557 0.4472 -0.4785
vn 0.7634 0.4472 -0.4661
vn 0.7709 0.4472 -0.4535
vn 0.7782 0.4472 -0.4409
vn 0.7853 0.4472 -0.4281
vn 0.7922 0.4472 -0.4152
vn 0.7989 0.4472 -0.4021
vn 0.8054 0.4472 -0.3890
vn 0.8117 0.4472 -0.3758
vn 0.8177 0.4472 -0.3625
vn 0.8235 0.4472 -0.3490
vn 0.8291 0.4472 -0.3355
vn 0.8345 0.4472 -0.3219
vn 0.8397 0.4472 -0.3082
vn 0.8446 0.4472 -0.2944
vn 0.8493 0.4472 -0.2806
vn 0.8538 0.4472 -0.2666
vn 0.8580 0.4472 -0.2526
vn 0.8620 0.4472 -0.2386
vn 0.8658 0.4472 -0.2244
vn 0.8694 0.4472 -0.2102
vn 0.8727 0.4472 -0.1960
vn 0.8758 0.4472 -0.1817
vn 0.8786 0.4472 -0.1673
vn 0.8813 0.4472 -0.1529
vn 0.8836 0.4472 -0.1385
vn 0.8858 0.4472 -0.1240
vn 0.8877 0.4472 -0.1095
vn 0.8894 0.4472 -0.0949
vn 0.8908 0.4472 -0.0804
vn 0.8920 0.4472 -0.0658
vn 0.8930 0.4472 -0.0512
vn 0.8937 0.4472 -0.0366
vn 0.8942 0.4472 -0.0220
vn 0.8944 0.4472 -0.0073
vn 0.8944 0.4472 0.0073
vn 0.8942 0.4472 0.0220
vn 0.8937 0.4472 0.0366
vn 0.8930 0.4472 0.0512
vn 0.8920 0.4472 0.0658
vn 0.8908 0.4472 0.0804
vn 0.8894 0.4472 0.0949
vn 0.8877 0.4472 0.1095
vn 0.8858 0.4472 0.1240
vn 0.8836 0.4472 0.1385
vn 0.8813 0.4472 0.1529
vn 0.8786 0.4472 0.1673
vn 0.8758 0.4472 0.1817
vn 0.8727 0.4472 0.1960
vn 0.8694 0.4472 0.2102
vn 0.8658 0.4472 0.2244
vn 0.8620 0.4472 0.2386
vn 0.8580 0.4472 0.2526
vn 0.8538 0.4472 0.2666
vn 0.8493 0.4472 0.2806
vn 0.8446 0.4472 0.2944
vn 0.8397 0.4472 0.3082
vn 0.8345 0.4472 0.3219
vn 0.8291 0.4472 0.3355
vn 0.8235 0.4472 0.3490
vn 0.8177 0.4472 0.3625
vn 0.8117 0.4472 0.3758
vn 0.8054 0.4472 0.3890
vn 0.7989 0.4472 0.4021
vn 0.7922 0.4472 0.4152
vn 0.7853 0.4472 0.4281
vn 0.7782 0.4472 0.4409
vn 0.7709 0.4472 0.4535
vn 0.7634 0.4472 0.4661
vn 0.7557 0.4472 0.4785
vn 0.7477 0.4472 0.4908
vn 0.7396 0.4472 0.5030
vn 0.7313 0.4472 0.5150
vn 0.7227 0.4472 0.5269
vn 0.7140 0.4472 0.5387
vn 0.7051 0.4472 0.5503
vn 0.6960 0.4472 0.5617
vn 0.6867 0.4472 0.5731
vn 0.6773 0.4472 0.5842
vn 0.6676 0.4472 0.5952
vn 0.6578 0.4472 0.6061
vn 0.6478 0.4472 0.6167
vn 0.6376 0.4472 0.6273
vn 0.6273 0.4472 0.6376
vn 0.6167 0.4472 0.6478
vn 0.6061 0.4472 0.6578
vn 0.5952 0.4472 0.6676
vn 0.5842 0.4472 0.6773
vn 0.5731 0.4472 0.6867
vn 0.5617 0.4472 0.6960
vn 0.5503 0.4472 0.7051
vn 0.5387 0.4472 0.7140
vn 0.5269 0.4472 0.7228
vn 0.5150 0.4472 0.7313
vn 0.5030 0.4472 0.7396
vn 0.4908 0.4472 0.7477
vn 0.4785 0.4472 0.7557
vn 0.4661 0.4472 0.7634
vn 0.4535 0.4472 0.7709
vn 0.4409 0.4472 0.7782
vn 0.4281 0.4472 0.7853
vn 0.4152 0.4472 0.7922
vn 0.4021 0.4472 0.7989
vn 0.3890 0.4472 0.8054
vn 0.3758 0.4472 0.8117
vn 0.3625 0.4472 0.8177
vn 0.3490 0.4472 0.8235
vn 0.3355 0.4472 0.8291
vn 0.3219 0.4472 0.8345
vn 0.3082 0.4472 0.8397
vn 0.2944 0.4472 0.8446
vn 0.2806 0.4472 0.8493
vn 0.2666 0.4472 0.8538
vn 0.2526 0.4472 0.8580
vn 0.2386 0.4472 0.8620
vn 0.2244 0.4472 0.8658
vn 0.2102 0.4472 0.8694
vn 0.1960 0.4472 0.8727
vn 0.1817 0.4472 0.8758
vn 0.1673 0.4472 0.8786
vn 0.1529 0.4472 0.8813
vn 0.1385 0.4472 0.8836
vn 0.1240 0.4472 0.8858
vn 0.1095 0.4472 0.8877
vn 0.0949 0.4472 0.8894
vn 0.0804 0.4472 0.8908
vn 0.0658 0.4472 0.8920
vn 0.0512 0.4472 0.8930
vn 0.0366 0.4472 0.8937
vn 0.0220 0.4472 0.8942
vn 0.0073 0.4472 0.8944
vn -0.0073 0.4472 0.8944
vn -0.0220 0.4472 0.8942
vn -0.0366 0.4472 0.8937
vn -0.0512 0.4472 0.8930
vn -0.0658 0.4472 0.8920
vn -0.0804 0.4472 0.8908
vn -0.0949 0.4472 0.8894
vn -0.1095 0.4472 0.8877
vn -0.1240 0.4472 0.8858
vn -0.1385 0.4472 0.8836
vn -0.1529 0.4472 0.8813
vn -0.1673 0.4472 0.8786
vn -0.1817 0.4472 0.8758
vn -0.1960 0.4472 0.8727
vn -0.2102 0.4472 0.8694
vn -0.2244 0.4472 0.8658
vn -0.2386 0.4472 0.8620
vn -0.2526 0.4472 0.8580
vn -0.2666 0.4472 0.8538
vn -0.2806 0.4472 0.8493
vn -0.2944 0.4472 0.8446
vn -0.3082 0.4472 0.8397
vn -0.3219 0.4472 0.8345
vn -0.3355 0.4472 0.8291
vn -0.3490 0.4472 0.8235
vn -0.3625 0.4472 0.8177
vn -0.3758 0.4472 0.8117
vn -0.3890 0.4472 0.8054
vn -0.4021 0.4472 0.7989
vn -0.4152 0.4472 0.7922
vn -0.4281 0.4472 0.7853
vn -0.4409 0.4472 0.7782
vn -0.4535 0.4472 0.7709
vn -0.4661 0.4472 0.7634
vn -0.4785 0.4472 0.7557
vn -0.4908 0.4472 0.7477
vn -0.5030 0.4472 0.7396
vn -0.5150 0.4472 0.7313
vn -0.5269 0.4472 0.7227
vn -0.5387 0.4472 0.7140
vn -0.5503 0.4472 0.7051
vn -0.5617 0.4472 0.6960
vn -0.5731 0.4472 0.6867
vn -0.5842 0.4472 0.6773
vn -0.5952 0.4472 0.6676
vn -0.6061 0.4472 0.6578
vn -0.6167 0.4472 0.6478
vn -0.6273 0.4472 0.6376
vn -0.6376 0.4472 0.6273
vn -0.6478 0.4472 0.6167
vn -0.6578 0.4472 0.6061
vn -0.6676 0.4472 0.5952
vn -0.6773 0.4472 0.5842
vn -0.6867 0.4472 0.5731
vn -0.6960 0.4472 0.5617
vn -0.7051 0.4472 0.5503
vn -0.7140 0.4472 0.5387
vn -0.7227 0.4472 0.5269
vn -0.7313 0.4472 0.5150
vn -0.7396 0.4472 0.5030
vn -0.7477 0.4472 0.4908
vn -0.7557 0.4472 0.4785
vn -0.7634 0.4472 0.4661
vn -0.7709 0.4472 0.4535
vn -0.7782 0.4472 0.4409
vn -0.7853 0.4472 0.4281
vn -0.7922 0.4472 0.4152
vn -0.7989 0.4472 0.4021
vn -0.8054 0.4472 0.3890
vn -0.8117 0.4472 0.3758
vn -0.8177 0.4472 0.3625
vn -0.8235 0.4472 0.3490
vn -0.8291 0.4472 0.3355
vn -0.8345 0.4472 0.3219
vn -0.8397 0.4472 0.3082
vn -0.8446 0.4472 0.2944
vn -0.8493 0.4472 0.2806
vn -0.8538 0.4472 0.2666
vn -0.8580 0.4472 0.2526
vn -0.8620 0.4472 0.2386
vn -0.8658 0.4472 0.2244
vn -0.8694 0.4472 0.2102
vn -0.8727 0.4472 0.1960
vn -0.8758 0.4472 0.1817
vn -0.8786 0.4472 0.1673
vn -0.8813 0.4472 0.1529
vn -0.8836 0.4472 0.1385
vn -0.8858 0.4472 0.1240
vn -0.8877 0.4472 0.1095
vn -0.8894 0.4472 0.0949
vn -0.8908 0.4472 0.0804
vn -0.8920 0.4472 0.0658
vn -0.8930 0.4472 0.0512
vn -0.8937 0.4472 0.0366
vn -0.8942 0.4472 0.0220
vn -0.8944 0.4472 0.0073
vn -0.8944 0.4472 -0.0073
vn -0.8942 0.4472 -0.0220
vn -0.8937 0.4472 -0.0366
vn -0.8930 0.4472 -0.0512
vn -0.8920 0.4472 -0.0658
vn -0.8908 0.4472 -0.0804
vn -0.8894 0.4472 -0.0949
vn -0.8877 0.4472 -0.1095
vn -0.8858 0.4472 -0.1240
vn -0.8836 0.4472 -0.1385
vn -0.8813 0.4472 -0.1529
vn -0.8786 0.4472 -0.1673
vn -0.8758 0.4472 -0.1817
vn -0.8727 0.4472 -0.1960
vn -0.8694 0.4472 -0.2102
vn -0.8658 0.4472 -0.2244
vn -0.8620 0.4472 -0.2386
vn -0.8580 0.4472 -0.2526
vn -0.8538 0.4472 -0.2666
vn -0.8493 0.4472 -0.2806
vn -0.8446 0.4472 -0.2944
vn -0.8397 0.4472 -0.3082
vn -0.8345 0.4472 -0.3219
vn -0.8291 0.4472 -0.3355
vn -0.8235 0.4472 -0.3490
vn -0.8177 0.4472 -0.3625
vn -0.8117 0.4472 -0.3758
vn -0.8054 0.4472 -0.3890
vn -0.7989 0.4472 -0.4021
vn -0.7922 0.4472 -0.4152
vn -0.7853 0.4472 -0.4281
vn -0.7782 0.4472 -0.4409
vn -0.7709 0.4472 -0.4535
vn -0.7634 0.4472 -0.4661
vn -0.7557 0.4472 -0.4785
vn -0.7477 0.4472 -0.4908
vn -0.7396 0.4472 -0.5030
vn -0.7313 0.4472 -0.5150
vn -0.7227 0.4472 -0.5269
vn -0.7140 0.4472 -0.5387
vn -0.7051 0.4472 -0.5503
vn -0.6960 0.4472 -0.5617
vn -0.6867 0.4472 -0.5731
vn -0.6773 0.4472 -0.5842
vn -0.6676 0.4472 -0.5952
vn -0.6578 0.4472 -0.6061
vn -0.6478 0.4472 -0.6167
vn -0.6376 0.4472 -0.6273
vn -0.6273 0.4472 -0.6376
vn -0.6167 0.4472 -0.6478
vn -0.6061 0.4472 -0.6578
vn -0.5952 0.4472 -0.6676
vn -0.5842 0.4472 -0.6773
vn -0.5731 0.4472 -0.6867
vn -0.5617 0.4472 -0.6960
vn -0.5503 0.4472 -0.7051
vn -0.5387 0.4472 -0.7140
vn -0.5269 0.4472 -0.7228
vn -0.5150 0.4472 -0.7313
vn -0.5030 0.4472 -0.7396
vn -0.4908 0.4472 -0.7477
vn -0.4785 0.4472 -0.7557
vn -0.4661 0.4472 -0.7634
vn -0.4535 0.4472 -0.7709
vn -0.4409 0.4472 -0.7782
vn -0.4281 0.4472 -0.7853
vn -0.4152 0.4472 -0.7922
vn -0.4021 0.4472 -0.7989
vn -0.3890 0.4472 -0.8054
vn -0.3758 0.4472 -0.8117
vn -0.3625 0.4472 -0.8177
vn -0.3490 0.4472 -0.8235
vn -0.3355 0.4472 -0.8291
vn -0.3219 0.4472 -0.8345
vn -0.3082 0.4472 -0.8397
vn -0.2944 0.4472 -0.8446
vn -0.2806 0.4472 -0.8493
vn -0.2666 0.4472 -0.8538
vn -0.2526 0.4472 -0.8580
vn -0.2386 0.4472 -0.8620
vn -0.2244 0.4472 -0.8658
vn -0.2102 0.4472 -0.8694
vn -0.1960 0.4472 -0.8727
vn -0.1817 0.4472 -0.8758
vn -0.1673 0.4472 -0.8786
vn -0.1529 0.4472 -0.8813
vn -0.1385 0.4472 -0.8836
vn -0.1240 0.4472 -0.8858
vn -0.1095 0.4472 -0.8877
vn -0.0949 0.4472 -0.8894
vn -0.0804 0.4472 -0.8908
vn -0.0658 0.4472 -0.8920
vn -0.0512 0.4472 -0.8930
vn -0.0366 0.4472 -0.8937
vn -0.0000 -1.0000 -0.0000
vn -0.0220 0.4472 -0.8942
vn -0.0073 0.4472 -0.8944
vt 0.250000 0.490000
vt 0.250000 0.250000
vt 0.253927 0.489968
vt 0.257853 0.489872
vt 0.261776 0.489711
vt 0.265697 0.489486
vt 0.269613 0.489197
vt 0.273524 0.488844
vt 0.277429 0.488427
vt 0.281326 0.487947
vt 0.285215 0.487402
vt 0.289095 0.486794
vt 0.292964 0.486123
vt 0.296822 0.485388
vt 0.300667 0.484591
vt 0.304498 0.483730
vt 0.308315 0.482808
vt 0.312117 0.481822
vt 0.315901 0.480775
vt 0.319668 0.479666
vt 0.323417 0.478495
vt 0.327145 0.477263
vt 0.330854 0.475971
vt 0.334540 0.474617
vt 0.338204 0.473204
vt 0.341844 0.471731
vt 0.345460 0.470199
vt 0.349050 0.468607
vt 0.352613 0.466957
vt 0.356149 0.465249
vt 0.359657 0.463484
vt 0.363135 0.461661
vt 0.366583 0.459782
vt 0.370000 0.457846
vt 0.373385 0.455855
vt 0.376736 0.453809
vt 0.380054 0.451708
vt 0.383337 0.449553
vt 0.386584 0.447344
vt 0.389795 0.445083
vt 0.392968 0.442770
vt 0.396103 0.440405
vt 0.399199 0.437989
vt 0.402254 0.435522
vt 0.405269 0.433007
vt 0.408243 0.430442
vt 0.411174 0.427828
vt 0.414062 0.425167
vt 0.416906 0.422460
vt 0.419706 0.419706
vt 0.422460 0.416906
vt 0.425167 0.414062
vt 0.427828 0.411174
vt 0.430442 0.408243
vt 0.433007 0.405269
vt 0.435522 0.402254
vt 0.437989 0.399199
vt 0.440405 0.396103
vt 0.442770 0.392968
vt 0.445083 0.389795
vt 0.447344 0.386584
vt 0.449553 0.383337
vt 0.451708 0.380054
vt 0.453809 0.376736
vt 0.455855 0.373385
vt 0.457846 0.370000
vt 0.459782 0.366583
vt 0.461661 0.363135
vt 0.463484 0.359657
vt 0.465249 0.356149
vt 0.466957 0.352613
vt 0.468607 0.349050
vt 0.470199 0.345460
vt 0.471731 0.341844
vt 0.473204 0.338204
vt 0.474617 0.334540
vt 0.475971 0.330854
vt 0.477263 0.327145
vt 0.478495 0.323417
vt 0.479666 0.319668
vt 0.480775 0.315901
vt 0.481822 0.312117
vt 0.482808 0.308315
vt 0.483730 0.304498
vt 0.484591 0.300667
vt 0.485388 0.296822
vt 0.486123 0.292964
vt 0.486794 0.289095
vt 0.487402 0.285215
vt 0.487947 0.281326
vt 0.488427 0.277429
vt 0.488844 0.273524
vt 0.489197 0.269613
vt 0.489486 0.265697
vt 0.489711 0.261776
vt 0.489872 0.257853
vt 0.489968 0.253927
vt 0.490000 0.250000
vt 0.489968 0.246073
vt 0.489872 0.242147
vt 0.489711 0.238224
vt 0.489486 0.234303
vt 0.489197 0.230387
vt 0.488844 0.226476
vt 0.488427 0.222571
vt 0.487947 0.218674
vt 0.487402 0.214785
vt 0.486794 0.210905
vt 0.486123 0.207036
vt 0.485388 0.203178
vt 0.484591 0.199333
vt 0.483730 0.195502
vt 0.482808 0.191685
vt 0.481822 0.187883
vt 0.480775 0.184099
vt 0.479666 0.180332
vt 0.478495 0.176583
vt 0.477263 0.172855
vt 0.475971 0.169146
vt 0.474617 0.165460
vt 0.473204 0.161796
vt 0.471731 0.158156
vt 0.470199 0.154540
vt 0.468607 0.150950
vt 0.466957 0.147387
vt 0.465249 0.143851
vt 0.463484 0.140343
vt 0.461661 0.136865
vt 0.459782 0.133417
vt 0.457846 0.130000
vt 0.455855 0.126615
vt 0.453809 0.123264
vt 0.451708 0.119946
vt 0.449553 0.116663
vt 0.447344 0.113416
vt 0.445083 0.110205
vt 0.442770 0.107032
vt 0.440405 0.103897
vt 0.437989 0.100801
vt 0.435522 0.097746
vt 0.433007 0.094731
vt 0.430442 0.091757
vt 0.427828 0.088826
vt 0.425167 0.085938
vt 0.422460 0.083094
vt 0.419706 0.080294
vt 0.416906 0.077540
vt 0.414062 0.074833
vt 0.411174 0.072172
vt 0.408243 0.069558
vt 0.405269 0.066993
vt 0.402254 0.064478
vt 0.399199 0.062011
vt 0.396103 0.059595
vt 0.392968 0.057230
vt 0.389795 0.054917
vt 0.386584 0.052656
vt 0.383337 0.050447
vt 0.380054 0.048292
vt 0.376736 0.046191
vt 0.373385 0.044145
vt 0.370000 0.042154
vt 0.366583 0.040218
vt 0.363135 0.038339
vt 0.359657 0.036516
vt 0.356149 0.034751
vt 0.352613 0.033043
vt 0.349050 0.031393
vt 0.345460 0.029801
vt 0.341844 0.028269
vt 0.338204 0.026796
vt 0.334540 0.025383
vt 0.330854 0.024029
vt 0.327145 0.022737
vt 0.323417 0.021505
vt 0.319668 0.020334
vt 0.315901 0.019225
vt 0.312117 0.018178
vt 0.308315 0.017192
vt 0.304498 0.016270
vt 0.300667 0.015409
vt 0.296822 0.014612
vt 0.292964 0.013877
vt 0.289095 0.013206
vt 0.285215 0.012598
vt 0.281326 0.012053
vt 0.277429 0.011573
vt 0.273524 0.011156
vt 0.269613 0.010803
vt 0.265697 0.010514
vt 0.261776 0.010289
vt 0.257853 0.010129
vt 0.253927 0.010032
vt 0.250000 0.010000
vt 0.246073 0.010032
vt 0.242147 0.010129
vt 0.238224 0.010289
vt 0.234303 0.010514
vt 0.230387 0.010803
vt 0.226476 0.011156
vt 0.222571 0.011573
vt 0.218674 0.012053
vt 0.214785 0.012598
vt 0.210905 0.013206
vt 0.207036 0.013877
vt 0.203178 0.014612
vt 0.199333 0.015409
vt 0.195502 0.016270
vt 0.191685 0.017192
vt 0.187883 0.018178
vt 0.184099 0.019225
vt 0.180332 0.020334
vt 0.176583 0.021505
vt 0.172855 0.022737
vt 0.169146 0.024029
vt 0.165460 0.025383
vt 0.161796 0.026796
vt 0.158156 0.028269
vt 0.154540 0.029801
vt 0.150950 0.031393
vt 0.147387 0.033043
vt 0.143851 0.034751
vt 0.140343 0.036516
vt 0.136865 0.038339
vt 0.133417 0.040218
vt 0.130000 0.042154
vt 0.126615 0.044145
vt 0.123264 0.046191
vt 0.119946 0.048292
vt 0.116663 0.050447
vt 0.113416 0.052656
vt 0.110205 0.054917
vt 0.107032 0.057230
vt 0.103897 0.059595
vt 0.100801 0.062011
vt 0.097746 0.064478
vt 0.094731 0.066993
vt 0.091757 0.069558
vt 0.088826 0.072172
vt 0.085938 0.074833
vt 0.083094 0.077540
vt 0.080294 0.080294
vt 0.077540 0.083094
vt 0.074833 0.085938
vt 0.072172 0.088826
vt 0.069558 0.091757
vt 0.066993 0.094731
vt 0.064478 0.097746
vt 0.062011 0.100801
vt 0.059595 0.103897
vt 0.057230 0.107032
vt 0.054917 0.110205
vt 0.052656 0.113416
vt 0.050447 0.116663
vt 0.048292 0.119946
vt 0.046191 0.123264
vt 0.044145 0.126615
vt 0.042154 0.130000
vt 0.040218 0.133417
vt 0.038339 0.136865
vt 0.036516 0.140343
vt 0.034751 0.143851
vt 0.033043 0.147387
vt 0.031393 0.150950
vt 0.029801 0.154540
vt 0.028269 0.158156
vt 0.026796 0.161796
vt 0.025383 0.165460
vt 0.024029 0.169146
vt 0.022737 0.172855
vt 0.021505 0.176583
vt 0.020334 0.180332
vt 0.019225 0.184099
vt 0.018178 0.187883
vt 0.017192 0.191685
vt 0.016270 0.195502
vt 0.015409 0.199333
vt 0.014612 0.203178
vt 0.013877 0.207036
vt 0.013206 0.210905
vt 0.012598 0.214785
vt 0.012053 0.218674
vt 0.011573 0.222571
vt 0.011156 0.226476
vt 0.010803 0.230387
vt 0.010514 0.234303
vt 0.010289 0.238224
vt 0.010129 0.242147
vt 0.010032 0.246073
vt 0.010000 0.250000
vt 0.010032 0.253927
vt 0.010129 0.257853
vt 0.010289 0.261776
vt 0.010514 0.265697
vt 0.010803 0.269613
vt 0.011156 0.273524
vt 0.011573 0.277429
vt 0.012053 0.281326
vt 0.012598 0.285215
vt 0.013206 0.289095
vt 0.013877 0.292964
vt 0.014612 0.296822
vt 0.015409 0.300667
vt 0.016270 0.304498
vt 0.017192 0.308315
vt 0.018178 0.312117
vt 0.019225 0.315901
vt 0.020334 0.319668
vt 0.021505 0.323417
vt 0.022737 0.327145
vt 0.024029 0.330854
vt 0.025383 0.334540
vt 0.026796 0.338204
vt 0.028269 0.341844
vt 0.029801 0.345460
vt 0.031393 0.349050
vt 0.033043 0.352613
vt 0.034751 0.356149
vt 0.036516 0.359657
vt 0.038339 0.363135
vt 0.040218 0.366583
vt 0.042154 0.370000
vt 0.044145 0.373385
vt 0.046191 0.376736
vt 0.048292 0.380054
vt 0.050447 0.383337
vt 0.052656 0.386584
vt 0.054917 0.389795
vt 0.057230 0.392968
vt 0.059595 0.396103
vt 0.062011 0.399199
vt 0.064478 0.402254
vt 0.066993 0.405269
vt 0.069558 0.408243
vt 0.072172 0.411174
vt 0.074833 0.414062
vt 0.077540 0.416906
vt 0.080294 0.419706
vt 0.083094 0.422460
vt 0.085938 0.425167
vt 0.088826 0.427828
vt 0.091757 0.430442
vt 0.094731 0.433007
vt 0.097746 0.435522
vt 0.100801 0.437989
vt 0.103897 0.440405
vt 0.107032 0.442770
vt 0.110205 0.445083
vt 0.113416 0.447344
vt 0.116663 0.449553
vt 0.119946 0.451708
vt 0.123264 0.453809
vt 0.126615 0.455855
vt 0.130000 0.457846
vt 0.133417 0.459782
vt 0.136865 0.461661
vt 0.140343 0.463484
vt 0.143851 0.465249
vt 0.147387 0.466957
vt 0.150950 0.468607
vt 0.154540 0.470199
vt 0.158156 0.471731
vt 0.161796 0.473204
vt 0.165460 0.474617
vt 0.169146 0.475971
vt 0.172855 0.477263
vt 0.176583 0.478495
vt 0.180332 0.479666
vt 0.184099 0.480775
vt 0.187883 0.481822
vt 0.191685 0.482808
vt 0.195502 0.483730
vt 0.199333 0.484591
vt 0.203178 0.485388
vt 0.207036 0.486123
vt 0.210905 0.486794
vt 0.214785 0.487402
vt 0.218674 0.487947
vt 0.222571 0.488427
vt 0.226476 0.488844
vt 0.230387 0.489197
vt 0.234303 0.489486
vt 0.238224 0.489711
vt 0.242147 0.489872
vt 0.750000 0.490000
vt 0.753927 0.489968
vt 0.757853 0.489872
vt 0.761776 0.489711
vt 0.765697 0.489486
vt 0.769613 0.489197
vt 0.773524 0.488844
vt 0.777429 0.488427
vt 0.781326 0.487947
vt 0.785215 0.487402
vt 0.789095 0.486794
vt 0.792964 0.486123
vt 0.796822 0.485388
vt 0.800667 0.484591
vt 0.804498 0.483730
vt 0.808315 0.482808
vt 0.812117 0.481822
vt 0.815901 0.480775
vt 0.819668 0.479666
vt 0.823417 0.478495
vt 0.827145 0.477263
vt 0.830854 0.475971
vt 0.834540 0.474617
vt 0.838204 0.473204
vt 0.841844 0.471731
vt 0.845460 0.470199
vt 0.849050 0.468607
vt 0.852613 0.466957
vt 0.856149 0.465249
vt 0.859657 0.463484
vt 0.863135 0.461661
vt 0.866583 0.459782
vt 0.870000 0.457846
vt 0.873385 0.455855
vt 0.876736 0.453809
vt 0.880054 0.451708
vt 0.883337 0.449553
vt 0.886584 0.447344
vt 0.889795 0.445083
vt 0.892968 0.442770
vt 0.896103 0.440405
vt 0.899199 0.437989
vt 0.902254 0.435522
vt 0.905270 0.433007
vt 0.908243 0.430442
vt 0.911174 0.427828
vt 0.914062 0.425167
vt 0.916906 0.422460
vt 0.919706 0.419706
vt 0.922460 0.416906
vt 0.925167 0.414062
vt 0.927828 0.411174
vt 0.930442 0.408243
vt 0.933007 0.405269
vt 0.935522 0.402254
vt 0.937989 0.399199
vt 0.940405 0.396103
vt 0.942770 0.392968
vt 0.945083 0.389795
vt 0.947344 0.386584
vt 0.949553 0.383337
vt 0.951708 0.380054
vt 0.953809 0.376736
vt 0.955855 0.373385
vt 0.957846 0.370000
vt 0.959782 0.366583
vt 0.961661 0.363135
vt 0.963484 0.359657
vt 0.965249 0.356149
vt 0.966957 0.352613
vt 0.968607 0.349050
vt 0.970199 0.345460
vt 0.971731 0.341844
vt 0.973204 0.338204
vt 0.974617 0.334540
vt 0.975971 0.330854
vt 0.977263 0.327145
vt 0.978495 0.323417
vt 0.979666 0.319668
vt 0.980775 0.315901
vt 0.981822 0.312117
vt 0.982808 0.308315
vt 0.983730 0.304498
vt 0.984591 0.300667
vt 0.985388 0.296822
vt 0.986123 0.292964
vt 0.986794 0.289095
vt 0.987402 0.285215
vt 0.987947 0.281326
vt 0.988427 0.277429
vt 0.988844 0.273524
vt 0.989197 0.269613
vt 0.989486 0.265697
vt 0.989711 0.261776
vt 0.989872 0.257853
vt 0.989968 0.253927
vt 0.990000 0.250000
vt 0.989968 0.246073
vt 0.989872 0.242147
vt 0.989711 0.238224
vt 0.989486 0.234303
vt 0.989197 0.230387
vt 0.988844 0.226476
vt 0.988427 0.222571
vt 0.987947 0.218674
vt 0.987402 0.214785
vt 0.986794 0.210905
vt 0.986123 0.207036
vt 0.985388 0.203178
vt 0.984591 0.199333
vt 0.983730 0.195502
vt 0.982808 0.191685
vt 0.981822 0.187883
vt 0.980775 0.184099
vt 0.979666 0.180332
vt 0.978495 0.176583
vt 0.977263 0.172855
vt 0.975971 0.169146
vt 0.974617 0.165460
vt 0.973204 0.161796
vt 0.971731 0.158156
vt 0.970199 0.154540
vt 0.968607 0.150950
vt 0.966957 0.147387
vt 0.965249 0.143851
vt 0.963484 0.140343
vt 0.961661 0.136865
vt 0.959782 0.133417
vt 0.957846 0.130000
vt 0.955855 0.126615
vt 0.953809 0.123264
vt 0.951708 0.119946
vt 0.949553 0.116663
vt 0.947344 0.113416
vt 0.945083 0.110205
vt 0.942770 0.107032
vt 0.940405 0.103897
vt 0.937989 0.100801
vt 0.935522 0.097746
vt 0.933007 0.094731
vt 0.930442 0.091757
vt 0.927828 0.088826
vt 0.925167 0.085938
vt 0.922460 0.083094
vt 0.919706 0.080294
vt 0.916906 0.077540
vt 0.914062 0.074833
vt 0.911174 0.072172
vt 0.908243 0.069558
vt 0.905270 0.066993
vt 0.902254 0.064478
vt 0.899199 0.062011
vt 0.896103 0.059595
vt 0.892968 0.057230
vt 0.889795 0.054917
vt 0.886584 0.052656
vt 0.883337 0.050447
vt 0.880054 0.048292
vt 0.876736 0.046191
vt 0.873385 0.044145
vt 0.870000 0.042154
vt 0.866583 0.040218
vt 0.863135 0.038339
vt 0.859657 0.036516
vt 0.856149 0.034751
vt 0.852613 0.033043
vt 0.849050 0.031393
vt 0.845460 0.029801
vt 0.841844 0.028269
vt 0.838204 0.026796
vt 0.834540 0.025383
vt 0.830854 0.024029
vt 0.827145 0.022737
vt 0.823417 0.021505
vt 0.819668 0.020334
vt 0.815901 0.019225
vt 0.812117 0.018178
vt 0.808315 0.017192
vt 0.804498 0.016270
vt 0.800667 0.015409
vt 0.796822 0.014612
vt 0.792964 0.013877
vt 0.789095 0.013206
vt 0.785215 0.012598
vt 0.781326 0.012053
vt 0.777429 0.011573
vt 0.773524 0.011156
vt 0.769613 0.010803
vt 0.765697 0.010514
vt 0.761776 0.010289
vt 0.757853 0.010129
vt 0.753927 0.010032
vt 0.750000 0.010000
vt 0.746073 0.010032
vt 0.742147 0.010129
vt 0.738224 0.010289
vt 0.734303 0.010514
vt 0.730387 0.010803
vt 0.726476 0.011156
vt 0.722571 0.011573
vt 0.718674 0.012053
vt 0.714785 0.012598
vt 0.710905 0.013206
vt 0.707036 0.013877
vt 0.703178 0.014612
vt 0.699333 0.015409
vt 0.695502 0.016270
vt 0.691685 0.017192
vt 0.687883 0.018178
vt 0.684099 0.019225
vt 0.680332 0.020334
vt 0.676583 0.021505
vt 0.672855 0.022737
vt 0.669146 0.024029
vt 0.665460 0.025383
vt 0.661796 0.026796
vt 0.658156 0.028269
vt 0.654540 0.029801
vt 0.650950 0.031393
vt 0.647387 0.033043
vt 0.643851 0.034751
vt 0.640343 0.036516
vt 0.636865 0.038339
vt 0.633417 0.040218
vt 0.630000 0.042154
vt 0.626615 0.044145
vt 0.623264 0.046191
vt 0.619946 0.048292
vt 0.616663 0.050447
vt 0.613416 0.052656
vt 0.610205 0.054917
vt 0.607032 0.057230
vt 0.603897 0.059595
vt 0.600801 0.062011
vt 0.597746 0.064478
vt 0.594730 0.066993
vt 0.591757 0.069558
vt 0.588826 0.072172
vt 0.585938 0.074833
vt 0.583094 0.077540
vt 0.580294 0.080294
vt 0.577540 0.083094
vt 0.574833 0.085938
vt 0.572172 0.088826
vt 0.569558 0.091757
vt 0.566993 0.094731
vt 0.564478 0.097746
vt 0.562011 0.100801
vt 0.559595 0.103897
vt 0.557230 0.107032
vt 0.554917 0.110205
vt 0.552656 0.113416
vt 0.550447 0.116663
vt 0.548292 0.119946
vt 0.546191 0.123264
vt 0.544145 0.126615
vt 0.542154 0.130000
vt 0.540218 0.133417
vt 0.538339 0.136865
vt 0.536516 0.140343
vt 0.534751 0.143851
vt 0.533043 0.147387
vt 0.531393 0.150950
vt 0.529801 0.154540
vt 0.528269 0.158156
vt 0.526796 0.161796
vt 0.525383 0.165460
vt 0.524029 0.169146
vt 0.522737 0.172855
vt 0.521505 0.176583
vt 0.520334 0.180332
vt 0.519225 0.184099
vt 0.518178 0.187883
vt 0.517192 0.191685
vt 0.516270 0.195502
vt 0.515409 0.199333
vt 0.514612 0.203178
vt 0.513877 0.207036
vt 0.513206 0.210905
vt 0.512598 0.214785
vt 0.512053 0.218674
vt 0.511573 0.222571
vt 0.511156 0.226476
vt 0.510803 0.230387
vt 0.510514 0.234303
vt 0.510289 0.238224
vt 0.510128 0.242147
vt 0.510032 0.246073
vt 0.510000 0.250000
vt 0.510032 0.253927
vt 0.510128 0.257853
vt 0.510289 0.261776
vt 0.510514 0.265697
vt 0.510803 0.269613
vt 0.511156 0.273524
vt 0.511573 0.277429
vt 0.512053 0.281326
vt 0.512598 0.285215
vt 0.513206 0.289095
vt 0.513877 0.292964
vt 0.514612 0.296822
vt 0.515409 0.300667
vt 0.516270 0.304498
vt 0.517192 0.308315
vt 0.518178 0.312117
vt 0.519225 0.315901
vt 0.520334 0.319668
vt 0.521505 0.323417
vt 0.522737 0.327145
vt 0.524029 0.330854
vt 0.525383 0.334540
vt 0.526796 0.338204
vt 0.528269 0.341844
vt 0.529801 0.345460
vt 0.531393 0.349050
vt 0.533043 0.352613
vt 0.534751 0.356149
vt 0.536516 0.359657
vt 0.538339 0.363135
vt 0.540218 0.366583
vt 0.542154 0.370000
vt 0.544145 0.373385
vt 0.546191 0.376736
vt 0.548292 0.380054
vt 0.550447 0.383337
vt 0.552656 0.386584
vt 0.554917 0.389795
vt 0.557230 0.392968
vt 0.559595 0.396103
vt 0.562011 0.399199
vt 0.564478 0.402254
vt 0.566993 0.405269
vt 0.569558 0.408243
vt 0.572172 0.411174
vt 0.574833 0.414062
vt 0.577540 0.416906
vt 0.580294 0.419706
vt 0.583094 0.422460
vt 0.585938 0.425167
vt 0.588826 0.427828
vt 0.591757 0.430442
vt 0.594730 0.433007
vt 0.597746 0.435522
vt 0.600801 0.437989
vt 0.603897 0.440405
vt 0.607032 0.442770
vt 0.610205 0.445083
vt 0.613416 0.447344
vt 0.616663 0.449553
vt 0.619946 0.451708
vt 0.623264 0.453809
vt 0.626615 0.455855
vt 0.630000 0.457846
vt 0.633417 0.459782
vt 0.636865 0.461661
vt 0.640343 0.463484
vt 0.643851 0.465249
vt 0.647387 0.466957
vt 0.650950 0.468607
vt 0.654540 0.470199
vt 0.658156 0.471731
vt 0.661796 0.473204
vt 0.665460 0.474617
vt 0.669146 0.475971
vt 0.672855 0.477263
vt 0.676583 0.478495
vt 0.680332 0.479666
vt 0.684099 0.480775
vt 0.687883 0.481822
vt 0.691685 0.482808
vt 0.695502 0.483730
vt 0.699333 0.484591
vt 0.703178 0.485388
vt 0.707036 0.486123
vt 0.710905 0.486794
vt 0.714785 0.487402
vt 0.718674 0.487947
vt 0.722571 0.488427
vt 0.726476 0.488844
vt 0.730387 0.489197
vt 0.734303 0.489486
vt 0.738224 0.489711
vt 0.742147 0.489872
vt 0.746073 0.489968
vt 0.246073 0.489968
s 0
f 1/1/1 385/2/1 2/3/1
f 2/3/2 385/2/2 3/4/2
f 3/4/3 385/2/3 4/5/3
f 4/5/4 385/2/4 5/6/4
f 5/6/5 385/2/5 6/7/5
f 6/7/6 385/2/6 7/8/6
f 7/8/7 385/2/7 8/9/7
f 8/9/8 385/2/8 9/10/8
f 9/10/9 385/2/9 10/11/9
f 10/11/10 385/2/10 11/12/10
f 11/12/11 385/2/11 12/13/11
f 12/13/12 385/2/12 13/14/12
f 13/14/13 385/2/13 14/15/13
f 14/15/14 385/2/14 15/16/14
f 15/16/15 385/2/15 16/17/15
f 16/17/16 385/2/16 17/18/16
f 17/18/17 385/2/17 18/19/17
f 18/19/18 385/2/18 19/20/18
f 19/20/19 385/2/19 20/21/19
f 20/21/20 385/2/20 21/22/20
f 21/22/21 385/2/21 22/23/21
f 22/23/22 385/2/22 23/24/22
f 23/24/23 385/2/23 24/25/23
f 24/25/24 385/2/24 25/26/24
f 25/26/25 385/2/25 26/27/25
f 26/27/26 385/2/26 27/28/26
f 27/28/27 385/2/27 28/29/27
f 28/29/28 385/2/28 29/30/28
f 29/30/29 385/2/29 30/31/29
f 30/31/30 385/2/30 31/32/30
f 31/32/31 385/2/31 32/33/31
f 32/33/32 385/2/32 33/34/32
f 33/34/33 385/2/33 34/35/33
f 34/35/34 385/2/34 35/36/34
f 35/36/35 385/2/35 36/37/35
f 36/37/36 385/2/36 37/38/36
f 37/38/37 385/2/37 38/39/37
f 38/39/38 385/2/38 39/40/38
f 39/40/39 385/2/39 40/41/39
f 40/41/40 385/2/40 41/42/40
f 41/42/41 385/2/41 42/43/41
f 42/43/42 385/2/42 43/44/42
f 43/44/43 385/2/43 44/45/43
f 44/45/44 385/2/44 45/46/44
f 45/46/45 385/2/45 46/47/45
f 46/47/46 385/2/46 47/48/46
f 47/48/47 385/2/47 48/49/47
f 48/49/48 385/2/48 49/50/48
f 49/50/49 385/2/49 50/51/49
f 50/51/50 385/2/50 51/52/50
f 51/52/51 385/2/51 52/53/51
f 52/53/52 385/2/52 53/54/52
f 53/54/53 385/2/53 54/55/53
f 54/55/54 385/2/54 55/56/54
f 55/56/55 385/2/55 56/57/55
f 56/57/56 385/2/56 57/58/56
f 57/58/57 385/2/57 58/59/57
f 58/59/58 385/2/58 59/60/58
f 59/60/59 385/2/59 60/61/59
f 60/61/60 385/2/60 61/62/60
f 61/62/61 385/2/61 62/63/61
f 62/63/62 385/2/62 63/64/62
f 63/64/63 385/2/63 64/65/63
f 64/65/64 385/2/64 65/66/64
f 65/66/65 385/2/65 66/67/65
f 66/67/66 385/2/66 67/68/66
f 67/68/67 385/2/67 68/69/67
f 68/69/68 385/2/68 69/70/68
f 69/70/69 385/2/69 70/71/69
f 70/71/70 385/2/70 71/72/70
f 71/72/71 385/2/71 72/73/71
f 72/73/72 385/2/72 73/74/72
f 73/74/73 385/2/73 74/75/73
f 74/75/74 385/2/74 75/76/74
f 75/76/75 385/2/75 76/77/75
f 76/77/76 385/2/76 77/78/76
f 77/78/77 385/2/77 78/79/77
f 78/79/78 385/2/78 79/80/78
f 79/80/79 385/2/79 80/81/79
f 80/81/80 385/2/80 81/82/80
f 81/82/81 385/2/81 82/83/81
f 82/83/82 385/2/82 83/84/82
f 83/84/83 385/2/83 84/85/83
f 84/85/84 385/2/84 85/86/84
f 85/86/85 385/2/85 86/87/85
f 86/87/86 385/2/86 87/88/86
f 87/88/87 385/2/87 88/89/87
f 88/89/88 385/2/88 89/90/88
f 89/90/89 385/2/89 90/91/89
f 90/91/90 385/2/90 91/92/90
f 91/92/91 385/2/91 92/93/91
f 92/93/92 385/2/92 93/94/92
f 93/94/93 385/2/93 94/95/93
f 94/95/94 385/2/94 95/96/94
f 95/96/95 385/2/95 96/97/95
f 96/97/96 385/2/96 97/98/96
f 97/98/97 385/2/97 98/99/97
f 98/99/98 385/2/98 99/100/98
f 99/100/99 385/2/99 100/101/99
f 100/101/100 385/2/100 101/102/100
f 101/102/101 385/2/101 102/103/101
f 102/103/102 385/2/102 103/104/102
f 103/104/103 385/2/103 104/105/103
f 104/105/104 385/2/104 105/106/104
f 105/106/105 385/2/105 106/107/105
f 106/107/106 385/2/106 107/108/106
f 107/108/107 385/2/107 108/109/107
f 108/109/108 385/2/108 109/110/108
f 109/110/109 385/2/109 110/111/109
f 110/111/110 385/2/110 111/112/110
f 111/112/111 385/2/111 112/113/111
f 112/113/112 385/2/112 113/114/112
f 113/114/113 385/2/113 114/115/113
f 114/115/114 385/2/114 115/116/114
f 115/116/115 385/2/115 116/117/115
f 116/117/116 385/2/116 117/118/116
f 117/118/117 385/2/117 118/119/117
f 118/119/118 385/2/118 119/120/118
f 119/120/119 385/2/119 120/121/119
f 120/121/120 385/2/120 121/122/120
f 121/122/121 385/2/121 122/123/121
f 122/123/122 385/2/122 123/124/122
f 123/124/123 385/2/123 124/125/123
f 124/125/124 385/2/124 125/126/124
f 125/126/125 385/2/125 126/127/125
f 126/127/126 385/2/126 127/128/126
f 127/128/127 385/2/127 128/129/127
f 128/129/128 385/2/128 129/130/128
f 129/130/129 385/2/129 130/131/129
f 130/131/130 385/2/130 131/132/130
f 131/132/131 385/2/131 132/133/131
f 132/133/132 385/2/132 133/134/132
f 133/134/133 385/2/133 134/135/133
f 134/135/134 385/2/134 135/136/134
f 135/136/135 385/2/135 136/137/135
f 136/137/136 385/2/136 137/138/136
f 137/138/137 385/2/137 138/139/137
f 138/139/138 385/2/138 139/140/138
f 139/140/139 385/2/139 140/141/139
f 140/141/140 385/2/140 141/142/140
f 141/142/141 385/2/141 142/143/141
f 142/143/142 385/2/142 143/144/142
f 143/144/143 385/2/143 144/145/143
f 144/145/144 385/2/144 145/146/144
f 145/146/145 385/2/145 146/147/145
f 146/147/146 385/2/146 147/148/146
f 147/148/147 385/2/147 148/149/147
f 148/149/148 385/2/148 149/150/148
f 149/150/149 385/2/149 150/151/149
f 150/151/150 385/2/150 151/152/150
f 151/152/151 385/2/151 152/153/151
f 152/153/152 385/2/152 153/154/152
f 153/154/153 385/2/153 154/155/153
f 154/155/154 385/2/154 155/156/154
f 155/156/155 385/2/155 156/157/155
f 156/157/156 385/2/156 157/158/156
f 157/158/157 385/2/157 158/159/157
f 158/159/158 385/2/158 159/160/158
f 159/160/159 385/2/159 160/161/159
f 160/161/160 385/2/160 161/162/160
f 161/162/161 385/2/161 162/163/161
f 162/163/162 385/2/162 163/164/162
f 163/164/163 385/2/163 164/165/163
f 164/165/164 385/2/164 165/166/164
f 165/166/165 385/2/165 166/167/165
f 166/167/166 385/2/166 167/168/166
f 167/168/167 385/2/167 168/169/167
f 168/169/168 385/2/168 169/170/168
f 169/170/169 385/2/169 170/171/169
f 170/171/170 385/2/170 171/172/170
f 171/172/171 385/2/171 172/173/171
f 172/173/172 385/2/172 173/174/172
f 173/174/173 385/2/173 174/175/173
f 174/175/174 385/2/174 175/176/174
f 175/176/175 385/2/175 176/177/175
f 176/177/176 385/2/176 177/178/176
f 177/178/177 385/2/177 178/179/177
f 178/179/178 385/2/178 179/180/178
f 179/180/179 385/2/179 180/181/179
f 180/181/180 385/2/180 181/182/180
f 181/182/181 385/2/181 182/183/181
f 182/183/182 385/2/182 183/184/182
f 183/184/183 385/2/183 184/185/183
f 184/185/184 385/2/184 185/186/184
f 185/186/185 385/2/185 186/187/185
f 186/187/186 385/2/186 187/188/186
f 187/188/187 385/2/187 188/189/187
f 188/189/188 385/2/188 189/190/188
f 189/190/189 385/2/189 190/191/189
f 190/191/190 385/2/190 191/192/190
f 191/192/191 385/2/191 192/193/191
f 192/193/192 385/2/192 193/194/192
f 193/194/193 385/2/193 194/195/193
f 194/195/194 385/2/194 195/196/194
f 195/196/195 385/2/195 196/197/195
f 196/197/196 385/2/196 197/198/196
f 197/198/197 385/2/197 198/199/197
f 198/199/198 385/2/198 199/200/198
f 199/200/199 385/2/199 200/201/199
f 200/201/200 385/2/200 201/202/200
f 201/202/201 385/2/201 202/203/201
f 202/203/202 385/2/202 203/204/202
f 203/204/203 385/2/203 204/205/203
f 204/205/204 385/2/204 205/206/204
f 205/206/205 385/2/205 206/207/205
f 206/207/206 385/2/206 207/208/206
f 207/208/207 385/2/207 208/209/207
f 208/209/208 385/2/208 209/210/208
f 209/210/209 385/2/209 210/211/209
f 210/211/210 385/2/210 211/212/210
f 211/212/211 385/2/211 212/213/211
f 212/213/212 385/2/212 213/214/212
f 213/214/213 385/2/213 214/215/213
f 214/215/214 385/2/214 215/216/214
f 215/216/215 385/2/215 216/217/215
f 216/217/216 385/2/216 217/218/216
f 217/218/217 385/2/217 218/219/217
f 218/219/218 385/2/218 219/220/218
f 219/220/219 385/2/219 220/221/219
f 220/221/220 385/2/220 221/222/220
f 221/222/221 385/2/221 222/223/221
f 222/223/222 385/2/222 223/224/222
f 223/224/223 385/2/223 224/225/223
f 224/225/224 385/2/224 225/226/224
f 225/226/225 385/2/225 226/227/225
f 226/227/226 385/2/226 227/228/226
f 227/228/227 385/2/227 228/229/227
f 228/229/228 385/2/228 229/230/228
f 229/230/229 385/2/229 230/231/229
f 230/231/230 385/2/230 231/232/230
f 231/232/231 385/2/231 232/233/231
f 232/233/232 385/2/232 233/234/232
f 233/234/233 385/2/233 234/235/233
f 234/235/234 385/2/234 235/236/234
f 235/236/235 385/2/235 236/237/235
f 236/237/236 385/2/236 237/238/236
f 237/238/237 385/2/237 238/239/237
f 238/239/238 385/2/238 239/240/238
f 239/240/239 385/2/239 240/241/239
f 240/241/240 385/2/240 241/242/240
f 241/242/241 385/2/241 242/243/241
f 242/243/242 385/2/242 243/244/242
f 243/244/243 385/2/243 244/245/243
f 244/245/244 385/2/244 245/246/244
f 245/246/245 385/2/245 246/247/245
f 246/247/246 385/2/246 247/248/246
f 247/248/247 385/2/247 248/249/247
f 248/249/248 385/2/248 249/250/248
f 249/250/249 385/2/249 250/251/249
f 250/251/250 385/2/250 251/252/250
f 251/252/251 385/2/251 252/253/251
f 252/253/252 385/2/252 253/254/252
f 253/254/253 385/2/253 254/255/253
f 254/255/254 385/2/254 255/256/254
f 255/256/255 385/2/255 256/257/255
f 256/257/256 385/2/256 257/258/256
f 257/258/257 385/2/257 258/259/257
f 258/259/258 385/2/258 259/260/258
f 259/260/259 385/2/259 260/261/259
f 260/261/260 385/2/260 261/262/260
f 261/262/261 385/2/261 262/263/261
f 262/263/262 385/2/262 263/264/262
f 263/264/263 385/2/263 264/265/263
f 264/265/264 385/2/264 265/266/264
f 265/266/265 385/2/265 266/267/265
f 266/267/266 385/2/266 267/268/266
f 267/268/267 385/2/267 268/269/267
f 268/269/268 385/2/268 269/270/268
f 269/270/269 385/2/269 270/271/269
f 270/271/270 385/2/270 271/272/270
f 271/272/271 385/2/271 272/273/271
f 272/273/272 385/2/272 273/274/272
f 273/274/273 385/2/273 274/275/273
f 274/275/274 385/2/274 275/276/274
f 275/276/275 385/2/275 276/277/275
f 276/277/276 385/2/276 277/278/276
f 277/278/277 385/2/277 278/279/277
f 278/279/278 385/2/278 279/280/278
f 279/280/279 385/2/279 280/281/279
f 280/281/280 385/2/280 281/282/280
f 281/282/281 385/2/281 282/283/281
f 282/283/282 385/2/282 283/284/282
f 283/284/283 385/2/283 284/285/283
f 284/285/284 385/2/284 285/286/284
f 285/286/285 385/2/285 286/287/285
f 286/287/286 385/2/286 287/288/286
f 287/288/287 385/2/287 288/289/287
f 288/289/288 385/2/288 289/290/288
f 289/290/289 385/2/289 290/291/289
f 290/291/290 385/2/290 291/292/290
f 291/292/291 385/2/291 292/293/291
f 292/293/292 385/2/292 293/294/292
f 293/294/293 385/2/293 294/295/293
f 294/295/294 385/2/294 295/296/294
f 295/296/295 385/2/295 296/297/295
f 296/297/296 385/2/296 297/298/296
f 297/298/297 385/2/297 298/299/297
f 298/299/298 385/2/298 299/300/298
f 299/300/299 385/2/299 300/301/299
f 300/301/300 385/2/300 301/302/300
f 301/302/301 385/2/301 302/303/301
f 302/303/302 385/2/302 303/304/302
f 303/304/303 385/2/303 304/305/303
f 304/305/304 385/2/304 305/306/304
f 305/306/305 385/2/305 306/307/305
f 306/307/306 385/2/306 307/308/306
f 307/308/307 385/2/307 308/309/307
f 308/309/308 385/2/308 309/310/308
f 309/310/309 385/2/309 310/311/309
f 310/311/310 385/2/310 311/312/310
f 311/312/311 385/2/311 312/313/311
f 312/313/312 385/2/312 313/314/312
f 313/314/313 385/2/313 314/315/313
f 314/315/314 385/2/314 315/316/314
f 315/316/315 385/2/315 316/317/315
f 316/317/316 385/2/316 317/318/316
f 317/318/317 385/2/317 318/319/317
f 318/319/318 385/2/318 319/320/318
f 319/320/319 385/2/319 320/321/319
f 320/321/320 385/2/320 321/322/320
f 321/322/321 385/2/321 322/323/321
f 322/323/322 385/2/322 323/324/322
f 323/324/323 385/2/323 324/325/323
f 324/325/324 385/2/324 325/326/324
f 325/326/325 385/2/325 326/327/325
f 326/327/326 385/2/326 327/328/326
f 327/328/327 385/2/327 328/329/327
f 328/329/328 385/2/328 329/330/328
f 329/330/329 385/2/329 330/331/329
f 330/331/330 385/2/330 331/332/330
f 331/332/331 385/2/331 332/333/331
f 332/333/332 385/2/332 333/334/332
f 333/334/333 385/2/333 334/335/333
f 334/335/334 385/2/334 335/336/334
f 335/336/335 385/2/335 336/337/335
f 336/337/336 385/2/336 337/338/336
f 337/338/337 385/2/337 338/339/337
f 338/339/338 385/2/338 339/340/338
f 339/340/339 385/2/339 340/341/339
f 340/341/340 385/2/340 341/342/340
f 341/342/341 385/2/341 342/343/341
f 342/343/342 385/2/342 343/344/342
f 343/344/343 385/2/343 344/345/343
f 344/345/344 385/2/344 345/346/344
f 345/346/345 385/2/345 346/347/345
f 346/347/346 385/2/346 347/348/346
f 347/348/347 385/2/347 348/349/347
f 348/349/348 385/2/348 349/350/348
f 349/350/349 385/2/349 350/351/349
f 350/351/350 385/2/350 351/352/350
f 351/352/351 385/2/351 352/353/351
f 352/353/352 385/2/352 353/354/352
f 353/354/353 385/2/353 354/355/353
f 354/355/354 385/2/354 355/356/354
f 355/356/355 385/2/355 356/357/355
f 356/357/356 385/2/356 357/358/356
f 357/358/357 385/2/357 358/359/357
f 358/359/358 385/2/358 359/360/358
f 359/360/359 385/2/359 360/361/359
f 360/361/360 385/2/360 361/362/360
f 361/362/361 385/2/361 362/363/361
f 362/363/362 385/2/362 363/364/362
f 363/364/363 385/2/363 364/365/363
f 364/365/364 385/2/364 365/366/364
f 365/366/365 385/2/365 366/367/365
f 366/367/366 385/2/366 367/368/366
f 367/368/367 385/2/367 368/369/367
f 368/369/368 385/2/368 369/370/368
f 369/370/369 385/2/369 370/371/369
f 370/371/370 385/2/370 371/372/370
f 371/372/371 385/2/371 372/373/371
f 372/373/372 385/2/372 373/374/372
f 373/374/373 385/2/373 374/375/373
f 374/375/374 385/2/374 375/376/374
f 375/376/375 385/2/375 376/377/375
f 376/377/376 385/2/376 377/378/376
f 377/378/377 385/2/377 378/379/377
f 378/379/378 385/2/378 379/380/378
f 379/380/379 385/2/379 380/381/379
f 380/381/380 385/2/380 381/382/380
f 381/382/381 385/2/381 382/383/381
f 382/383/382 385/2/382 383/384/382
f 1/385/383 2/386/383 3/387/383 4/388/383 5/389/383 6/390/383 7/391/383 8/392/383 9/393/383 10/394/383 11/395/383 12/396/383 13/397/383 14/398/383 15/399/383 16/400/383 17/401/383 18/402/383 19/403/383 20/404/383 21/405/383 22/406/383 23/407/383 24/408/383 25/409/383 26/410/383 27/411/383 28/412/383 29/413/383 30/414/383 31/415/383 32/416/383 33/417/383 34/418/383 35/419/383 36/420/383 37/421/383 38/422/383 39/423/383 40/424/383 41/425/383 42/426/383 43/427/383 44/428/383 45/429/383 46/430/383 47/431/383 48/432/383 49/433/383 50/434/383 51/435/383 52/436/383 53/437/383 54/438/383 55/439/383 56/440/383 57/441/383 58/442/383 59/443/383 60/444/383 61/445/383 62/446/383 63/447/383 64/448/383 65/449/383 66/450/383 67/451/383 68/452/383 69/453/383 70/454/383 71/455/383 72/456/383 73/457/383 74/458/383 75/459/383 76/460/383 77/461/383 78/462/383 79/463/383 80/464/383 81/465/383 82/466/383 83/467/383 84/468/383 85/469/383 86/470/383 87/471/383 88/472/383 89/473/383 90/474/383 91/475/383 92/476/383 93/477/383 94/478/383 95/479/383 96/480/383 97/481/383 98/482/383 99/483/383 100/484/383 101/485/383 102/486/383 103/487/383 104/488/383 105/489/383 106/490/383 107/491/383 108/492/383 109/493/383 110/494/383 111/495/383 112/496/383 113/497/383 114/498/383 115/499/383 116/500/383 117/501/383 118/502/383 119/503/383 120/504/383 121/505/383 122/506/383 123/507/383 124/508/383 125/509/383 126/510/383 127/511/383 128/512/383 129/513/383 130/514/383 131/515/383 132/516/383 133/517/383 134/518/383 135/519/383 136/520/383 137/521/383 138/522/383 139/523/383 140/524/383 141/525/383 142/526/383 143/527/383 144/528/383 145/529/383 146/530/383 147/531/383 148/532/383 149/533/383 150/534/383 151/535/383 152/536/383 153/537/383 154/538/383 155/539/383 156/540/383 157/541/383 158/542/383 159/543/383 160/544/383 161/545/383 162/546/383 163/547/383 164/548/383 165/549/383 166/550/383 167/551/383 168/552/383 169/553/383 170/554/383 171/555/383 172/556/383 173/557/383 174/558/383 175/559/383 176/560/383 177/561/383 178/562/383 179/563/383 180/564/383 181/565/383 182/566/383 183/567/383 184/568/383 185/569/383 186/570/383 187/571/383 188/572/383 189/573/383 190/574/383 191/575/383 192/576/383 193/577/383 194/578/383 195/579/383 196/580/383 197/581/383 198/582/383 199/583/383 200/584/383 201/585/383 202/586/383 203/587/383 204/588/383 205/589/383 206/590/383 207/591/383 208/592/383 209/593/383 210/594/383 211/595/383 212/596/383 213/597/383 214/598/383 215/599/383 216/600/383 217/601/383 218/602/383 219/603/383 220/604/383 221/605/383 222/606/383 223/607/383 224/608/383 225/609/383 226/610/383 227/611/383 228/612/383 229/613/383 230/614/383 231/615/383 232/616/383 233/617/383 234/618/383 235/619/383 236/620/383 237/621/383 238/622/383 239/623/383 240/624/383 241/625/383 242/626/383 243/627/383 244/628/383 245/629/383 246/630/383 247/631/383 248/632/383 249/633/383 250/634/383 251/635/383 252/636/383 253/637/383 254/638/383 255/639/383 256/640/383 257/641/383 258/642/383 259/643/383 260/644/383 261/645/383 262/646/383 263/647/383 264/648/383 265/649/383 266/650/383 267/651/383 268/652/383 269/653/383 270/654/383 271/655/383 272/656/383 273/657/383 274/658/383 275/659/383 276/660/383 277/661/383 278/662/383 279/663/383 280/664/383 281/665/383 282/666/383 283/667/383 284/668/383 285/669/383 286/670/383 287/671/383 288/672/383 289/673/383 290/674/383 291/675/383 292/676/383 293/677/383 294/678/383 295/679/383 296/680/383 297/681/383 298/682/383 299/683/383 300/684/383 301/685/383 302/686/383 303/687/383 304/688/383 305/689/383 306/690/383 307/691/383 308/692/383 309/693/383 310/694/383 311/695/383 312/696/383 313/697/383 314/698/383 315/699/383 316/700/383 317/701/383 318/702/383 319/703/383 320/704/383 321/705/383 322/706/383 323/707/383 324/708/383 325/709/383 326/710/383 327/711/383 328/712/383 329/713/383 330/714/383 331/715/383 332/716/383 333/717/383 334/718/383 335/719/383 336/720/383 337/721/383 338/722/383 339/723/383 340/724/383 341/725/383 342/726/383 343/727/383 344/728/383 345/729/383 346/730/383 347/731/383 348/732/383 349/733/383 350/734/383 351/735/383 352/736/383 353/737/383 354/738/383 355/739/383 356/740/383 357/741/383 358/742/383 359/743/383 360/744/383 361/745/383 362/746/383 363/747/383 364/748/383 365/749/383 366/750/383 367/751/383 368/752/383 369/753/383 370/754/383 371/755/383 372/756/383 373/757/383 374/758/383 375/759/383 376/760/383 377/761/383 378/762/383 379/763/383 380/764/383 381/765/383 382/766/383 383/767/383 384/768/383
f 383/384/384 385/2/384 384/769/384
f 384/769/385 385/2/385 1/1/385
