# Blender 4.2.1 LTS
# www.blender.org
o Cone.006
v 0.000000 -1.000000 -1.000000
v 0.024541 -1.000000 -0.999699
v 0.049068 -1.000000 -0.998795
v 0.073565 -1.000000 -0.997290
v 0.098017 -1.000000 -0.995185
v 0.122411 -1.000000 -0.992480
v 0.146730 -1.000000 -0.989177
v 0.170962 -1.000000 -0.985278
v 0.195090 -1.000000 -0.980785
v 0.219101 -1.000000 -0.975702
v 0.242980 -1.000000 -0.970031
v 0.266713 -1.000000 -0.963776
v 0.290285 -1.000000 -0.956940
v 0.313682 -1.000000 -0.949528
v 0.336890 -1.000000 -0.941544
v 0.359895 -1.000000 -0.932993
v 0.382683 -1.000000 -0.923880
v 0.405241 -1.000000 -0.914210
v 0.427555 -1.000000 -0.903989
v 0.449611 -1.000000 -0.893224
v 0.471397 -1.000000 -0.881921
v 0.492898 -1.000000 -0.870087
v 0.514103 -1.000000 -0.857729
v 0.534998 -1.000000 -0.844854
v 0.555570 -1.000000 -0.831470
v 0.575808 -1.000000 -0.817585
v 0.595699 -1.000000 -0.803208
v 0.615232 -1.000000 -0.788346
v 0.634393 -1.000000 -0.773010
v 0.653173 -1.000000 -0.757209
v 0.671559 -1.000000 -0.740951
v 0.689541 -1.000000 -0.724247
v 0.707107 -1.000000 -0.707107
v 0.724247 -1.000000 -0.689541
v 0.740951 -1.000000 -0.671559
v 0.757209 -1.000000 -0.653173
v 0.773010 -1.000000 -0.634393
v 0.788346 -1.000000 -0.615232
v 0.803208 -1.000000 -0.595699
v 0.817585 -1.000000 -0.575808
v 0.831470 -1.000000 -0.555570
v 0.844854 -1.000000 -0.534998
v 0.857729 -1.000000 -0.514103
v 0.870087 -1.000000 -0.492898
v 0.881921 -1.000000 -0.471397
v 0.893224 -1.000000 -0.449611
v 0.903989 -1.000000 -0.427555
v 0.914210 -1.000000 -0.405241
v 0.923880 -1.000000 -0.382683
v 0.932993 -1.000000 -0.359895
v 0.941544 -1.000000 -0.336890
v 0.949528 -1.000000 -0.313682
v 0.956940 -1.000000 -0.290285
v 0.963776 -1.000000 -0.266713
v 0.970031 -1.000000 -0.242980
v 0.975702 -1.000000 -0.219101
v 0.980785 -1.000000 -0.195090
v 0.985278 -1.000000 -0.170962
v 0.989177 -1.000000 -0.146730
v 0.992480 -1.000000 -0.122411
v 0.995185 -1.000000 -0.098017
v 0.997290 -1.000000 -0.073565
v 0.998795 -1.000000 -0.049068
v 0.999699 -1.000000 -0.024541
v 1.000000 -1.000000 0.000000
v 0.999699 -1.000000 0.024541
v 0.998795 -1.000000 0.049068
v 0.997290 -1.000000 0.073565
v 0.995185 -1.000000 0.098017
v 0.992480 -1.000000 0.122411
v 0.989177 -1.000000 0.146730
v 0.985278 -1.000000 0.170962
v 0.980785 -1.000000 0.195090
v 0.975702 -1.000000 0.219101
v 0.970031 -1.000000 0.242980
v 0.963776 -1.000000 0.266713
v 0.956940 -1.000000 0.290285
v 0.949528 -1.000000 0.313682
v 0.941544 -1.000000 0.336890
v 0.932993 -1.000000 0.359895
v 0.923880 -1.000000 0.382683
v 0.914210 -1.000000 0.405241
v 0.903989 -1.000000 0.427555
v 0.893224 -1.000000 0.449611
v 0.881921 -1.000000 0.471397
v 0.870087 -1.000000 0.492898
v 0.857729 -1.000000 0.514103
v 0.844854 -1.000000 0.534998
v 0.831470 -1.000000 0.555570
v 0.817585 -1.000000 0.575808
v 0.803208 -1.000000 0.595699
v 0.788346 -1.000000 0.615232
v 0.773010 -1.000000 0.634393
v 0.757209 -1.000000 0.653173
v 0.740951 -1.000000 0.671559
v 0.724247 -1.000000 0.689541
v 0.707107 -1.000000 0.707107
v 0.689541 -1.000000 0.724247
v 0.671559 -1.000000 0.740951
v 0.653173 -1.000000 0.757209
v 0.634393 -1.000000 0.773010
v 0.615232 -1.000000 0.788346
v 0.595699 -1.000000 0.803208
v 0.575808 -1.000000 0.817585
v 0.555570 -1.000000 0.831470
v 0.534998 -1.000000 0.844854
v 0.514103 -1.000000 0.857729
v 0.492898 -1.000000 0.870087
v 0.471397 -1.000000 0.881921
v 0.449611 -1.000000 0.893224
v 0.427555 -1.000000 0.903989
v 0.405241 -1.000000 0.914210
v 0.382683 -1.000000 0.923880
v 0.359895 -1.000000 0.932993
v 0.336890 -1.000000 0.941544
v 0.313682 -1.000000 0.949528
v 0.290285 -1.000000 0.956940
v 0.266713 -1.000000 0.963776
v 0.242980 -1.000000 0.970031
v 0.219101 -1.000000 0.975702
v 0.195090 -1.000000 0.980785
v 0.170962 -1.000000 0.985278
v 0.146730 -1.000000 0.989177
v 0.122411 -1.000000 0.992480
v 0.098017 -1.000000 0.995185
v 0.073565 -1.000000 0.997290
v 0.049068 -1.000000 0.998795
v 0.024541 -1.000000 0.999699
v 0.000000 -1.000000 1.000000
v -0.024541 -1.000000 0.999699
v -0.049068 -1.000000 0.998795
v -0.073565 -1.000000 0.997290
v -0.098017 -1.000000 0.995185
v -0.122411 -1.000000 0.992480
v -0.146730 -1.000000 0.989177
v -0.170962 -1.000000 0.985278
v -0.195090 -1.000000 0.980785
v -0.219101 -1.000000 0.975702
v -0.242980 -1.000000 0.970031
v -0.266713 -1.000000 0.963776
v -0.290285 -1.000000 0.956940
v -0.313682 -1.000000 0.949528
v -0.336890 -1.000000 0.941544
v -0.359895 -1.000000 0.932993
v -0.382683 -1.000000 0.923880
v -0.405241 -1.000000 0.914210
v -0.427555 -1.000000 0.903989
v -0.449611 -1.000000 0.893224
v -0.471397 -1.000000 0.881921
v -0.492898 -1.000000 0.870087
v -0.514103 -1.000000 0.857729
v -0.534998 -1.000000 0.844854
v -0.555570 -1.000000 0.831470
v -0.575808 -1.000000 0.817585
v -0.595699 -1.000000 0.803208
v -0.615232 -1.000000 0.788346
v -0.634393 -1.000000 0.773010
v -0.653173 -1.000000 0.757209
v -0.671559 -1.000000 0.740951
v -0.689541 -1.000000 0.724247
v -0.707107 -1.000000 0.707107
v -0.724247 -1.000000 0.689541
v -0.740951 -1.000000 0.671559
v -0.757209 -1.000000 0.653173
v -0.773010 -1.000000 0.634393
v -0.788346 -1.000000 0.615232
v -0.803208 -1.000000 0.595699
v -0.817585 -1.000000 0.575808
v -0.831470 -1.000000 0.555570
v -0.844854 -1.000000 0.534998
v -0.857729 -1.000000 0.514103
v -0.870087 -1.000000 0.492898
v -0.881921 -1.000000 0.471397
v -0.893224 -1.000000 0.449611
v -0.903989 -1.000000 0.427555
v -0.914210 -1.000000 0.405241
v -0.923880 -1.000000 0.382683
v -0.932993 -1.000000 0.359895
v -0.941544 -1.000000 0.336890
v -0.949528 -1.000000 0.313682
v -0.956940 -1.000000 0.290285
v -0.963776 -1.000000 0.266713
v -0.970031 -1.000000 0.242980
v -0.975702 -1.000000 0.219101
v -0.980785 -1.000000 0.195090
v -0.985278 -1.000000 0.170962
v -0.989177 -1.000000 0.146730
v -0.992480 -1.000000 0.122411
v -0.995185 -1.000000 0.098017
v -0.997290 -1.000000 0.073565
v -0.998795 -1.000000 0.049068
v -0.999699 -1.000000 0.024541
v -1.000000 -1.000000 0.000000
v -0.999699 -1.000000 -0.024541
v -0.998795 -1.000000 -0.049068
v -0.997290 -1.000000 -0.073565
v -0.995185 -1.000000 -0.098017
v -0.992480 -1.000000 -0.122411
v -0.989177 -1.000000 -0.146730
v -0.985278 -1.000000 -0.170962
v -0.980785 -1.000000 -0.195090
v -0.975702 -1.000000 -0.219101
v -0.970031 -1.000000 -0.242980
v -0.963776 -1.000000 -0.266713
v -0.956940 -1.000000 -0.290285
v -0.949528 -1.000000 -0.313682
v -0.941544 -1.000000 -0.336890
v -0.932993 -1.000000 -0.359895
v -0.923880 -1.000000 -0.382683
v -0.914210 -1.000000 -0.405241
v -0.903989 -1.000000 -0.427555
v -0.893224 -1.000000 -0.449611
v -0.881921 -1.000000 -0.471397
v -0.870087 -1.000000 -0.492898
v -0.857729 -1.000000 -0.514103
v -0.844854 -1.000000 -0.534998
v -0.831470 -1.000000 -0.555570
v -0.817585 -1.000000 -0.575808
v -0.803208 -1.000000 -0.595699
v -0.788346 -1.000000 -0.615232
v -0.773010 -1.000000 -0.634393
v -0.757209 -1.000000 -0.653173
v -0.740951 -1.000000 -0.671559
v -0.724247 -1.000000 -0.689541
v -0.707107 -1.000000 -0.707107
v -0.689541 -1.000000 -0.724247
v -0.671559 -1.000000 -0.740951
v -0.653173 -1.000000 -0.757209
v -0.634393 -1.000000 -0.773010
v -0.615232 -1.000000 -0.788346
v -0.595699 -1.000000 -0.803208
v -0.575808 -1.000000 -0.817585
v -0.555570 -1.000000 -0.831470
v -0.534998 -1.000000 -0.844854
v -0.514103 -1.000000 -0.857729
v -0.492898 -1.000000 -0.870087
v -0.471397 -1.000000 -0.881921
v -0.449611 -1.000000 -0.893224
v -0.427555 -1.000000 -0.903989
v -0.405241 -1.000000 -0.914210
v -0.382683 -1.000000 -0.923880
v -0.359895 -1.000000 -0.932993
v -0.336890 -1.000000 -0.941544
v -0.313682 -1.000000 -0.949528
v -0.290285 -1.000000 -0.956940
v -0.266713 -1.000000 -0.963776
v -0.242980 -1.000000 -0.970031
v -0.219101 -1.000000 -0.975702
v -0.195090 -1.000000 -0.980785
v -0.170962 -1.000000 -0.985278
v -0.146730 -1.000000 -0.989177
v -0.122411 -1.000000 -0.992480
v -0.098017 -1.000000 -0.995185
v -0.073565 -1.000000 -0.997290
v -0.049068 -1.000000 -0.998795
v -0.024541 -1.000000 -0.999699
v 0.000000 1.000000 0.000000
vn 0.0110 0.4472 -0.8944
vn 0.0329 0.4472 -0.8938
vn 0.0548 0.4472 -0.8928
vn 0.0767 0.4472 -0.8911
vn 0.0986 0.4472 -0.8890
vn 0.1204 0.4472 -0.8863
vn 0.1421 0.4472 -0.8831
vn 0.1637 0.4472 -0.8793
vn 0.1852 0.4472 -0.8750
vn 0.2067 0.4472 -0.8702
vn 0.2280 0.4472 -0.8649
vn 0.2491 0.4472 -0.8590
vn 0.2701 0.4472 -0.8527
vn 0.2910 0.4472 -0.8458
vn 0.3116 0.4472 -0.8384
vn 0.3321 0.4472 -0.8305
vn 0.3524 0.4472 -0.8221
vn 0.3725 0.4472 -0.8132
vn 0.3923 0.4472 -0.8038
vn 0.4119 0.4472 -0.7939
vn 0.4313 0.4472 -0.7836
vn 0.4504 0.4472 -0.7728
vn 0.4692 0.4472 -0.7615
vn 0.4878 0.4472 -0.7497
vn 0.5060 0.4472 -0.7375
vn 0.5240 0.4472 -0.7249
vn 0.5416 0.4472 -0.7118
vn 0.5589 0.4472 -0.6983
vn 0.5759 0.4472 -0.6844
vn 0.5925 0.4472 -0.6701
vn 0.6088 0.4472 -0.6553
vn 0.6247 0.4472 -0.6402
vn 0.6402 0.4472 -0.6247
vn 0.6553 0.4472 -0.6088
vn 0.6701 0.4472 -0.5925
vn 0.6844 0.4472 -0.5759
vn 0.6983 0.4472 -0.5589
vn 0.7118 0.4472 -0.5416
vn 0.7249 0.4472 -0.5240
vn 0.7375 0.4472 -0.5060
vn 0.7497 0.4472 -0.4878
vn 0.7615 0.4472 -0.4692
vn 0.7728 0.4472 -0.4504
vn 0.7836 0.4472 -0.4313
vn 0.7939 0.4472 -0.4119
vn 0.8038 0.4472 -0.3923
vn 0.8132 0.4472 -0.3725
vn 0.8221 0.4472 -0.3524
vn 0.8305 0.4472 -0.3321
vn 0.8384 0.4472 -0.3116
vn 0.8458 0.4472 -0.2910
vn 0.8527 0.4472 -0.2701
vn 0.8590 0.4472 -0.2491
vn 0.8649 0.4472 -0.2280
vn 0.8702 0.4472 -0.2067
vn 0.8750 0.4472 -0.1852
vn 0.8793 0.4472 -0.1637
vn 0.8831 0.4472 -0.1421
vn 0.8863 0.4472 -0.1204
vn 0.8890 0.4472 -0.0986
vn 0.8911 0.4472 -0.0767
vn 0.8928 0.4472 -0.0548
vn 0.8938 0.4472 -0.0329
vn 0.8944 0.4472 -0.0110
vn 0.8944 0.4472 0.0110
vn 0.8938 0.4472 0.0329
vn 0.8928 0.4472 0.0548
vn 0.8911 0.4472 0.0767
vn 0.8890 0.4472 0.0986
vn 0.8863 0.4472 0.1204
vn 0.8831 0.4472 0.1421
vn 0.8793 0.4472 0.1637
vn 0.8750 0.4472 0.1852
vn 0.8702 0.4472 0.2067
vn 0.8649 0.4472 0.2280
vn 0.8590 0.4472 0.2491
vn 0.8527 0.4472 0.2701
vn 0.8458 0.4472 0.2910
vn 0.8384 0.4472 0.3116
vn 0.8305 0.4472 0.3321
vn 0.8221 0.4472 0.3524
vn 0.8132 0.4472 0.3725
vn 0.8038 0.4472 0.3923
vn 0.7939 0.4472 0.4119
vn 0.7836 0.4472 0.4313
vn 0.7728 0.4472 0.4504
vn 0.7615 0.4472 0.4692
vn 0.7497 0.4472 0.4878
vn 0.7375 0.4472 0.5060
vn 0.7249 0.4472 0.5240
vn 0.7118 0.4472 0.5416
vn 0.6983 0.4472 0.5589
vn 0.6844 0.4472 0.5759
vn 0.6701 0.4472 0.5925
vn 0.6553 0.4472 0.6088
vn 0.6402 0.4472 0.6247
vn 0.6247 0.4472 0.6402
vn 0.6088 0.4472 0.6553
vn 0.5925 0.4472 0.6701
vn 0.5759 0.4472 0.6844
vn 0.5589 0.4472 0.6983
vn 0.5416 0.4472 0.7118
vn 0.5240 0.4472 0.7249
vn 0.5060 0.4472 0.7375
vn 0.4878 0.4472 0.7497
vn 0.4692 0.4472 0.7615
vn 0.4504 0.4472 0.7728
vn 0.4313 0.4472 0.7836
vn 0.4119 0.4472 0.7939
vn 0.3923 0.4472 0.8038
vn 0.3725 0.4472 0.8132
vn 0.3524 0.4472 0.8221
vn 0.3321 0.4472 0.8305
vn 0.3116 0.4472 0.8384
vn 0.2910 0.4472 0.8458
vn 0.2701 0.4472 0.8527
vn 0.2491 0.4472 0.8590
vn 0.2280 0.4472 0.8649
vn 0.2067 0.4472 0.8702
vn 0.1852 0.4472 0.8750
vn 0.1637 0.4472 0.8793
vn 0.1421 0.4472 0.8831
vn 0.1204 0.4472 0.8863
vn 0.0986 0.4472 0.8890
vn 0.0767 0.4472 0.8911
vn 0.0548 0.4472 0.8928
vn 0.0329 0.4472 0.8938
vn 0.0110 0.4472 0.8944
vn -0.0110 0.4472 0.8944
vn -0.0329 0.4472 0.8938
vn -0.0548 0.4472 0.8928
vn -0.0767 0.4472 0.8911
vn -0.0986 0.4472 0.8890
vn -0.1204 0.4472 0.8863
vn -0.1421 0.4472 0.8831
vn -0.1637 0.4472 0.8793
vn -0.1852 0.4472 0.8750
vn -0.2067 0.4472 0.8702
vn -0.2280 0.4472 0.8649
vn -0.2491 0.4472 0.8590
vn -0.2701 0.4472 0.8527
vn -0.2910 0.4472 0.8458
vn -0.3116 0.4472 0.8384
vn -0.3321 0.4472 0.8305
vn -0.3524 0.4472 0.8221
vn -0.3725 0.4472 0.8132
vn -0.3923 0.4472 0.8038
vn -0.4119 0.4472 0.7939
vn -0.4313 0.4472 0.7836
vn -0.4504 0.4472 0.7728
vn -0.4692 0.4472 0.7615
vn -0.4878 0.4472 0.7497
vn -0.5060 0.4472 0.7375
vn -0.5240 0.4472 0.7249
vn -0.5416 0.4472 0.7118
vn -0.5589 0.4472 0.6983
vn -0.5759 0.4472 0.6844
vn -0.5925 0.4472 0.6701
vn -0.6088 0.4472 0.6553
vn -0.6247 0.4472 0.6402
vn -0.6402 0.4472 0.6247
vn -0.6553 0.4472 0.6088
vn -0.6701 0.4472 0.5925
vn -0.6844 0.4472 0.5759
vn -0.6983 0.4472 0.5589
vn -0.7118 0.4472 0.5416
vn -0.7249 0.4472 0.5240
vn -0.7375 0.4472 0.5060
vn -0.7497 0.4472 0.4878
vn -0.7615 0.4472 0.4692
vn -0.7728 0.4472 0.4504
vn -0.7836 0.4472 0.4313
vn -0.7939 0.4472 0.4119
vn -0.8038 0.4472 0.3923
vn -0.8132 0.4472 0.3725
vn -0.8221 0.4472 0.3524
vn -0.8305 0.4472 0.3321
vn -0.8384 0.4472 0.3116
vn -0.8458 0.4472 0.2910
vn -0.8527 0.4472 0.2701
vn -0.8590 0.4472 0.2491
vn -0.8649 0.4472 0.2280
vn -0.8702 0.4472 0.2067
vn -0.8750 0.4472 0.1852
vn -0.8793 0.4472 0.1637
vn -0.8831 0.4472 0.1421
vn -0.8863 0.4472 0.1204
vn -0.8890 0.4472 0.0986
vn -0.8911 0.4472 0.0767
vn -0.8928 0.4472 0.0548
vn -0.8938 0.4472 0.0329
vn -0.8944 0.4472 0.0110
vn -0.8944 0.4472 -0.0110
vn -0.8938 0.4472 -0.0329
vn -0.8928 0.4472 -0.0548
vn -0.8911 0.4472 -0.0767
vn -0.8890 0.4472 -0.0986
vn -0.8863 0.4472 -0.1204
vn -0.8831 0.4472 -0.1421
vn -0.8793 0.4472 -0.1637
vn -0.8750 0.4472 -0.1852
vn -0.8702 0.4472 -0.2067
vn -0.8649 0.4472 -0.2280
vn -0.8590 0.4472 -0.2491
vn -0.8527 0.4472 -0.2701
vn -0.8458 0.4472 -0.2910
vn -0.8384 0.4472 -0.3116
vn -0.8305 0.4472 -0.3321
vn -0.8221 0.4472 -0.3524
vn -0.8132 0.4472 -0.3725
vn -0.8038 0.4472 -0.3923
vn -0.7939 0.4472 -0.4119
vn -0.7836 0.4472 -0.4313
vn -0.7728 0.4472 -0.4504
vn -0.7615 0.4472 -0.4692
vn -0.7497 0.4472 -0.4878
vn -0.7375 0.4472 -0.5060
vn -0.7249 0.4472 -0.5240
vn -0.7118 0.4472 -0.5416
vn -0.6983 0.4472 -0.5589
vn -0.6844 0.4472 -0.5759
vn -0.6701 0.4472 -0.5925
vn -0.6553 0.4472 -0.6088
vn -0.6402 0.4472 -0.6247
vn -0.6247 0.4472 -0.6402
vn -0.6088 0.4472 -0.6553
vn -0.5925 0.4472 -0.6701
vn -0.5759 0.4472 -0.6844
vn -0.5589 0.4472 -0.6983
vn -0.5416 0.4472 -0.7118
vn -0.5240 0.4472 -0.7249
vn -0.5060 0.4472 -0.7375
vn -0.4878 0.4472 -0.7497
vn -0.4692 0.4472 -0.7615
vn -0.4504 0.4472 -0.7728
vn -0.4313 0.4472 -0.7836
vn -0.4119 0.4472 -0.7939
vn -0.3923 0.4472 -0.8038
vn -0.3725 0.4472 -0.8132
vn -0.3524 0.4472 -0.8221
vn -0.3321 0.4472 -0.8305
vn -0.3116 0.4472 -0.8384
vn -0.2910 0.4472 -0.8458
vn -0.2701 0.4472 -0.8527
vn -0.2491 0.4472 -0.8590
vn -0.2280 0.4472 -0.8649
vn -0.2067 0.4472 -0.8702
vn -0.1852 0.4472 -0.8750
vn -0.1637 0.4472 -0.8793
vn -0.1421 0.4472 -0.8831
vn -0.1204 0.4472 -0.8863
vn -0.0986 0.4472 -0.8890
vn -0.0767 0.4472 -0.8911
vn -0.0548 0.4472 -0.8928
vn -0.0000 -1.0000 -0.0000
vn -0.0329 0.4472 -0.8938
vn -0.0110 0.4472 -0.8944
vt 0.250000 0.490000
vt 0.250000 0.250000
vt 0.255890 0.489928
vt 0.261776 0.489711
vt 0.267655 0.489350
vt 0.273524 0.488844
vt 0.279379 0.488195
vt 0.285215 0.487402
vt 0.291031 0.486467
vt 0.296822 0.485388
vt 0.302584 0.484168
vt 0.308315 0.482808
vt 0.314011 0.481306
vt 0.319668 0.479666
vt 0.325284 0.477887
vt 0.330854 0.475971
vt 0.336375 0.473918
vt 0.341844 0.471731
vt 0.347258 0.469410
vt 0.352613 0.466957
vt 0.357907 0.464374
vt 0.363135 0.461661
vt 0.368296 0.458821
vt 0.373385 0.455855
vt 0.378399 0.452765
vt 0.383337 0.449553
vt 0.388194 0.446220
vt 0.392968 0.442770
vt 0.397656 0.439203
vt 0.402254 0.435522
vt 0.406761 0.431730
vt 0.411174 0.427828
vt 0.415490 0.423819
vt 0.419706 0.419706
vt 0.423819 0.415490
vt 0.427828 0.411174
vt 0.431730 0.406761
vt 0.435522 0.402254
vt 0.439203 0.397656
vt 0.442770 0.392968
vt 0.446220 0.388194
vt 0.449553 0.383337
vt 0.452765 0.378399
vt 0.455855 0.373385
vt 0.458821 0.368296
vt 0.461661 0.363135
vt 0.464374 0.357907
vt 0.466957 0.352613
vt 0.469410 0.347258
vt 0.471731 0.341844
vt 0.473918 0.336375
vt 0.475971 0.330854
vt 0.477887 0.325284
vt 0.479666 0.319668
vt 0.481306 0.314011
vt 0.482808 0.308315
vt 0.484168 0.302584
vt 0.485388 0.296822
vt 0.486467 0.291031
vt 0.487402 0.285215
vt 0.488195 0.279379
vt 0.488844 0.273524
vt 0.489350 0.267655
vt 0.489711 0.261776
vt 0.489928 0.255890
vt 0.490000 0.250000
vt 0.489928 0.244110
vt 0.489711 0.238224
vt 0.489350 0.232345
vt 0.488844 0.226476
vt 0.488195 0.220621
vt 0.487402 0.214785
vt 0.486467 0.208969
vt 0.485388 0.203178
vt 0.484168 0.197416
vt 0.482808 0.191685
vt 0.481306 0.185989
vt 0.479666 0.180332
vt 0.477887 0.174716
vt 0.475971 0.169146
vt 0.473918 0.163625
vt 0.471731 0.158156
vt 0.469410 0.152742
vt 0.466957 0.147387
vt 0.464374 0.142093
vt 0.461661 0.136865
vt 0.458821 0.131704
vt 0.455855 0.126615
vt 0.452765 0.121601
vt 0.449553 0.116663
vt 0.446220 0.111806
vt 0.442770 0.107032
vt 0.439203 0.102344
vt 0.435522 0.097746
vt 0.431730 0.093239
vt 0.427828 0.088826
vt 0.423819 0.084510
vt 0.419706 0.080294
vt 0.415490 0.076181
vt 0.411174 0.072172
vt 0.406761 0.068270
vt 0.402254 0.064478
vt 0.397656 0.060797
vt 0.392968 0.057230
vt 0.388194 0.053780
vt 0.383337 0.050447
vt 0.378399 0.047235
vt 0.373385 0.044145
vt 0.368296 0.041179
vt 0.363135 0.038339
vt 0.357907 0.035626
vt 0.352613 0.033043
vt 0.347258 0.030590
vt 0.341844 0.028269
vt 0.336375 0.026082
vt 0.330854 0.024029
vt 0.325284 0.022113
vt 0.319668 0.020334
vt 0.314011 0.018694
vt 0.308315 0.017192
vt 0.302584 0.015832
vt 0.296822 0.014612
vt 0.291031 0.013533
vt 0.285215 0.012598
vt 0.279379 0.011805
vt 0.273524 0.011156
vt 0.267655 0.010650
vt 0.261776 0.010289
vt 0.255890 0.010072
vt 0.250000 0.010000
vt 0.244110 0.010072
vt 0.238224 0.010289
vt 0.232345 0.010650
vt 0.226476 0.011156
vt 0.220621 0.011805
vt 0.214785 0.012598
vt 0.208969 0.013533
vt 0.203178 0.014612
vt 0.197416 0.015832
vt 0.191685 0.017192
vt 0.185989 0.018694
vt 0.180332 0.020334
vt 0.174716 0.022113
vt 0.169146 0.024029
vt 0.163625 0.026082
vt 0.158156 0.028269
vt 0.152742 0.030590
vt 0.147387 0.033043
vt 0.142093 0.035626
vt 0.136865 0.038339
vt 0.131704 0.041179
vt 0.126615 0.044145
vt 0.121601 0.047235
vt 0.116663 0.050447
vt 0.111806 0.053780
vt 0.107032 0.057230
vt 0.102344 0.060797
vt 0.097746 0.064478
vt 0.093239 0.068270
vt 0.088826 0.072172
vt 0.084510 0.076181
vt 0.080294 0.080294
vt 0.076181 0.084510
vt 0.072172 0.088826
vt 0.068270 0.093239
vt 0.064478 0.097746
vt 0.060797 0.102344
vt 0.057230 0.107032
vt 0.053780 0.111806
vt 0.050447 0.116663
vt 0.047235 0.121601
vt 0.044145 0.126615
vt 0.041179 0.131704
vt 0.038339 0.136865
vt 0.035626 0.142093
vt 0.033043 0.147387
vt 0.030590 0.152742
vt 0.028269 0.158156
vt 0.026082 0.163625
vt 0.024029 0.169146
vt 0.022113 0.174716
vt 0.020334 0.180332
vt 0.018694 0.185989
vt 0.017192 0.191685
vt 0.015832 0.197416
vt 0.014612 0.203178
vt 0.013533 0.208969
vt 0.012598 0.214785
vt 0.011805 0.220621
vt 0.011156 0.226476
vt 0.010650 0.232345
vt 0.010289 0.238224
vt 0.010072 0.244110
vt 0.010000 0.250000
vt 0.010072 0.255890
vt 0.010289 0.261776
vt 0.010650 0.267655
vt 0.011156 0.273524
vt 0.011805 0.279379
vt 0.012598 0.285215
vt 0.013533 0.291031
vt 0.014612 0.296822
vt 0.015832 0.302584
vt 0.017192 0.308315
vt 0.018694 0.314011
vt 0.020334 0.319668
vt 0.022113 0.325284
vt 0.024029 0.330854
vt 0.026082 0.336375
vt 0.028269 0.341844
vt 0.030590 0.347258
vt 0.033043 0.352613
vt 0.035626 0.357907
vt 0.038339 0.363135
vt 0.041179 0.368296
vt 0.044145 0.373385
vt 0.047235 0.378399
vt 0.050447 0.383337
vt 0.053780 0.388194
vt 0.057230 0.392968
vt 0.060797 0.397656
vt 0.064478 0.402254
vt 0.068270 0.406761
vt 0.072172 0.411174
vt 0.076181 0.415490
vt 0.080294 0.419706
vt 0.084510 0.423819
vt 0.088826 0.427828
vt 0.093239 0.431730
vt 0.097746 0.435522
vt 0.102344 0.439203
vt 0.107032 0.442770
vt 0.111806 0.446220
vt 0.116663 0.449553
vt 0.121601 0.452765
vt 0.126615 0.455855
vt 0.131704 0.458821
vt 0.136865 0.461661
vt 0.142093 0.464374
vt 0.147387 0.466957
vt 0.152742 0.469410
vt 0.158156 0.471731
vt 0.163625 0.473918
vt 0.169146 0.475971
vt 0.174716 0.477887
vt 0.180332 0.479666
vt 0.185989 0.481306
vt 0.191685 0.482808
vt 0.197416 0.484168
vt 0.203178 0.485388
vt 0.208969 0.486467
vt 0.214785 0.487402
vt 0.220621 0.488195
vt 0.226476 0.488844
vt 0.232345 0.489350
vt 0.238224 0.489711
vt 0.750000 0.490000
vt 0.755890 0.489928
vt 0.761776 0.489711
vt 0.767655 0.489350
vt 0.773524 0.488844
vt 0.779379 0.488195
vt 0.785215 0.487402
vt 0.791031 0.486467
vt 0.796822 0.485388
vt 0.802584 0.484168
vt 0.808315 0.482808
vt 0.814011 0.481306
vt 0.819668 0.479666
vt 0.825284 0.477887
vt 0.830854 0.475971
vt 0.836375 0.473918
vt 0.841844 0.471731
vt 0.847258 0.469410
vt 0.852613 0.466957
vt 0.857907 0.464374
vt 0.863135 0.461661
vt 0.868296 0.458821
vt 0.873385 0.455855
vt 0.878399 0.452765
vt 0.883337 0.449553
vt 0.888194 0.446220
vt 0.892968 0.442770
vt 0.897656 0.439203
vt 0.902254 0.435522
vt 0.906761 0.431730
vt 0.911174 0.427828
vt 0.915490 0.423819
vt 0.919706 0.419706
vt 0.923819 0.415490
vt 0.927828 0.411174
vt 0.931730 0.406761
vt 0.935522 0.402254
vt 0.939203 0.397656
vt 0.942770 0.392968
vt 0.946220 0.388194
vt 0.949553 0.383337
vt 0.952765 0.378399
vt 0.955855 0.373385
vt 0.958821 0.368296
vt 0.961661 0.363135
vt 0.964374 0.357907
vt 0.966957 0.352613
vt 0.969410 0.347258
vt 0.971731 0.341844
vt 0.973918 0.336375
vt 0.975971 0.330854
vt 0.977887 0.325284
vt 0.979666 0.319668
vt 0.981306 0.314011
vt 0.982808 0.308315
vt 0.984169 0.302584
vt 0.985388 0.296822
vt 0.986467 0.291031
vt 0.987402 0.285215
vt 0.988195 0.279379
vt 0.988844 0.273524
vt 0.989350 0.267655
vt 0.989711 0.261776
vt 0.989928 0.255890
vt 0.990000 0.250000
vt 0.989928 0.244110
vt 0.989711 0.238224
vt 0.989350 0.232345
vt 0.988844 0.226476
vt 0.988195 0.220621
vt 0.987402 0.214785
vt 0.986467 0.208969
vt 0.985388 0.203178
vt 0.984169 0.197416
vt 0.982808 0.191685
vt 0.981306 0.185989
vt 0.979666 0.180332
vt 0.977887 0.174716
vt 0.975971 0.169146
vt 0.973918 0.163625
vt 0.971731 0.158156
vt 0.969410 0.152742
vt 0.966957 0.147387
vt 0.964374 0.142093
vt 0.961661 0.136865
vt 0.958821 0.131704
vt 0.955855 0.126615
vt 0.952765 0.121601
vt 0.949553 0.116663
vt 0.946220 0.111806
vt 0.942770 0.107032
vt 0.939203 0.102344
vt 0.935522 0.097746
vt 0.931730 0.093239
vt 0.927828 0.088826
vt 0.923819 0.084510
vt 0.919706 0.080294
vt 0.915490 0.076181
vt 0.911174 0.072172
vt 0.906761 0.068270
vt 0.902254 0.064478
vt 0.897656 0.060797
vt 0.892968 0.057230
vt 0.888194 0.053780
vt 0.883337 0.050447
vt 0.878399 0.047235
vt 0.873385 0.044145
vt 0.868296 0.041179
vt 0.863135 0.038339
vt 0.857907 0.035626
vt 0.852613 0.033043
vt 0.847258 0.030590
vt 0.841844 0.028269
vt 0.836375 0.026082
vt 0.830854 0.024029
vt 0.825284 0.022113
vt 0.819668 0.020334
vt 0.814011 0.018694
vt 0.808315 0.017192
vt 0.802584 0.015832
vt 0.796822 0.014612
vt 0.791031 0.013533
vt 0.785215 0.012598
vt 0.779379 0.011805
vt 0.773524 0.011156
vt 0.767655 0.010650
vt 0.761776 0.010289
vt 0.755890 0.010072
vt 0.750000 0.010000
vt 0.744110 0.010072
vt 0.738224 0.010289
vt 0.732345 0.010650
vt 0.726476 0.011156
vt 0.720621 0.011805
vt 0.714785 0.012598
vt 0.708969 0.013533
vt 0.703178 0.014612
vt 0.697416 0.015832
vt 0.691685 0.017192
vt 0.685989 0.018694
vt 0.680332 0.020334
vt 0.674716 0.022113
vt 0.669146 0.024029
vt 0.663625 0.026082
vt 0.658156 0.028269
vt 0.652742 0.030590
vt 0.647387 0.033043
vt 0.642093 0.035626
vt 0.636865 0.038339
vt 0.631704 0.041179
vt 0.626615 0.044145
vt 0.621601 0.047235
vt 0.616663 0.050447
vt 0.611806 0.053780
vt 0.607032 0.057230
vt 0.602344 0.060797
vt 0.597746 0.064478
vt 0.593239 0.068270
vt 0.588826 0.072172
vt 0.584510 0.076181
vt 0.580294 0.080294
vt 0.576181 0.084510
vt 0.572172 0.088826
vt 0.568270 0.093239
vt 0.564478 0.097746
vt 0.560797 0.102344
vt 0.557230 0.107032
vt 0.553780 0.111806
vt 0.550447 0.116663
vt 0.547235 0.121601
vt 0.544145 0.126615
vt 0.541179 0.131704
vt 0.538339 0.136865
vt 0.535626 0.142093
vt 0.533043 0.147387
vt 0.530590 0.152742
vt 0.528269 0.158156
vt 0.526082 0.163625
vt 0.524029 0.169146
vt 0.522113 0.174716
vt 0.520334 0.180332
vt 0.518694 0.185989
vt 0.517192 0.191685
vt 0.515831 0.197416
vt 0.514612 0.203178
vt 0.513533 0.208969
vt 0.512598 0.214785
vt 0.511805 0.220621
vt 0.511156 0.226476
vt 0.510650 0.232345
vt 0.510289 0.238224
vt 0.510072 0.244110
vt 0.510000 0.250000
vt 0.510072 0.255890
vt 0.510289 0.261776
vt 0.510650 0.267655
vt 0.511156 0.273524
vt 0.511805 0.279379
vt 0.512598 0.285215
vt 0.513533 0.291031
vt 0.514612 0.296822
vt 0.515831 0.302584
vt 0.517192 0.308315
vt 0.518694 0.314011
vt 0.520334 0.319668
vt 0.522113 0.325284
vt 0.524029 0.330854
vt 0.526082 0.336375
vt 0.528269 0.341844
vt 0.530590 0.347258
vt 0.533043 0.352613
vt 0.535626 0.357907
vt 0.538339 0.363135
vt 0.541179 0.368296
vt 0.544145 0.373385
vt 0.547235 0.378399
vt 0.550447 0.383337
vt 0.553780 0.388194
vt 0.557230 0.392968
vt 0.560797 0.397656
vt 0.564478 0.402254
vt 0.568270 0.406761
vt 0.572172 0.411174
vt 0.576181 0.415490
vt 0.580294 0.419706
vt 0.584510 0.423819
vt 0.588826 0.427828
vt 0.593239 0.431730
vt 0.597746 0.435522
vt 0.602344 0.439203
vt 0.607032 0.442770
vt 0.611806 0.446220
vt 0.616663 0.449553
vt 0.621601 0.452765
vt 0.626615 0.455855
vt 0.631704 0.458821
vt 0.636865 0.461661
vt 0.642093 0.464374
vt 0.647387 0.466957
vt 0.652742 0.469410
vt 0.658156 0.471731
vt 0.663625 0.473918
vt 0.669146 0.475971
vt 0.674716 0.477887
vt 0.680332 0.479666
vt 0.685989 0.481306
vt 0.691685 0.482808
vt 0.697416 0.484168
vt 0.703178 0.485388
vt 0.708969 0.486467
vt 0.714785 0.487402
vt 0.720621 0.488195
vt 0.726476 0.488844
vt 0.732345 0.489350
vt 0.738224 0.489711
vt 0.744110 0.489928
vt 0.244110 0.489928
s 0
f 1/1/1 257/2/1 2/3/1
f 2/3/2 257/2/2 3/4/2
f 3/4/3 257/2/3 4/5/3
f 4/5/4 257/2/4 5/6/4
f 5/6/5 257/2/5 6/7/5
f 6/7/6 257/2/6 7/8/6
f 7/8/7 257/2/7 8/9/7
f 8/9/8 257/2/8 9/10/8
f 9/10/9 257/2/9 10/11/9
f 10/11/10 257/2/10 11/12/10
f 11/12/11 257/2/11 12/13/11
f 12/13/12 257/2/12 13/14/12
f 13/14/13 257/2/13 14/15/13
f 14/15/14 257/2/14 15/16/14
f 15/16/15 257/2/15 16/17/15
f 16/17/16 257/2/16 17/18/16
f 17/18/17 257/2/17 18/19/17
f 18/19/18 257/2/18 19/20/18
f 19/20/19 257/2/19 20/21/19
f 20/21/20 257/2/20 21/22/20
f 21/22/21 257/2/21 22/23/21
f 22/23/22 257/2/22 23/24/22
f 23/24/23 257/2/23 24/25/23
f 24/25/24 257/2/24 25/26/24
f 25/26/25 257/2/25 26/27/25
f 26/27/26 257/2/26 27/28/26
f 27/28/27 257/2/27 28/29/27
f 28/29/28 257/2/28 29/30/28
f 29/30/29 257/2/29 30/31/29
f 30/31/30 257/2/30 31/32/30
f 31/32/31 257/2/31 32/33/31
f 32/33/32 257/2/32 33/34/32
f 33/34/33 257/2/33 34/35/33
f 34/35/34 257/2/34 35/36/34
f 35/36/35 257/2/35 36/37/35
f 36/37/36 257/2/36 37/38/36
f 37/38/37 257/2/37 38/39/37
f 38/39/38 257/2/38 39/40/38
f 39/40/39 257/2/39 40/41/39
f 40/41/40 257/2/40 41/42/40
f 41/42/41 257/2/41 42/43/41
f 42/43/42 257/2/42 43/44/42
f 43/44/43 257/2/43 44/45/43
f 44/45/44 257/2/44 45/46/44
f 45/46/45 257/2/45 46/47/45
f 46/47/46 257/2/46 47/48/46
f 47/48/47 257/2/47 48/49/47
f 48/49/48 257/2/48 49/50/48
f 49/50/49 257/2/49 50/51/49
f 50/51/50 257/2/50 51/52/50
f 51/52/51 257/2/51 52/53/51
f 52/53/52 257/2/52 53/54/52
f 53/54/53 257/2/53 54/55/53
f 54/55/54 257/2/54 55/56/54
f 55/56/55 257/2/55 56/57/55
f 56/57/56 257/2/56 57/58/56
f 57/58/57 257/2/57 58/59/57
f 58/59/58 257/2/58 59/60/58
f 59/60/59 257/2/59 60/61/59
f 60/61/60 257/2/60 61/62/60
f 61/62/61 257/2/61 62/63/61
f 62/63/62 257/2/62 63/64/62
f 63/64/63 257/2/63 64/65/63
f 64/65/64 257/2/64 65/66/64
f 65/66/65 257/2/65 66/67/65
f 66/67/66 257/2/66 67/68/66
f 67/68/67 257/2/67 68/69/67
f 68/69/68 257/2/68 69/70/68
f 69/70/69 257/2/69 70/71/69
f 70/71/70 257/2/70 71/72/70
f 71/72/71 257/2/71 72/73/71
f 72/73/72 257/2/72 73/74/72
f 73/74/73 257/2/73 74/75/73
f 74/75/74 257/2/74 75/76/74
f 75/76/75 257/2/75 76/77/75
f 76/77/76 257/2/76 77/78/76
f 77/78/77 257/2/77 78/79/77
f 78/79/78 257/2/78 79/80/78
f 79/80/79 257/2/79 80/81/79
f 80/81/80 257/2/80 81/82/80
f 81/82/81 257/2/81 82/83/81
f 82/83/82 257/2/82 83/84/82
f 83/84/83 257/2/83 84/85/83
f 84/85/84 257/2/84 85/86/84
f 85/86/85 257/2/85 86/87/85
f 86/87/86 257/2/86 87/88/86
f 87/88/87 257/2/87 88/89/87
f 88/89/88 257/2/88 89/90/88
f 89/90/89 257/2/89 90/91/89
f 90/91/90 257/2/90 91/92/90
f 91/92/91 257/2/91 92/93/91
f 92/93/92 257/2/92 93/94/92
f 93/94/93 257/2/93 94/95/93
f 94/95/94 257/2/94 95/96/94
f 95/96/95 257/2/95 96/97/95
f 96/97/96 257/2/96 97/98/96
f 97/98/97 257/2/97 98/99/97
f 98/99/98 257/2/98 99/100/98
f 99/100/99 257/2/99 100/101/99
f 100/101/100 257/2/100 101/102/100
f 101/102/101 257/2/101 102/103/101
f 102/103/102 257/2/102 103/104/102
f 103/104/103 257/2/103 104/105/103
f 104/105/104 257/2/104 105/106/104
f 105/106/105 257/2/105 106/107/105
f 106/107/106 257/2/106 107/108/106
f 107/108/107 257/2/107 108/109/107
f 108/109/108 257/2/108 109/110/108
f 109/110/109 257/2/109 110/111/109
f 110/111/110 257/2/110 111/112/110
f 111/112/111 257/2/111 112/113/111
f 112/113/112 257/2/112 113/114/112
f 113/114/113 257/2/113 114/115/113
f 114/115/114 257/2/114 115/116/114
f 115/116/115 257/2/115 116/117/115
f 116/117/116 257/2/116 117/118/116
f 117/118/117 257/2/117 118/119/117
f 118/119/118 257/2/118 119/120/118
f 119/120/119 257/2/119 120/121/119
f 120/121/120 257/2/120 121/122/120
f 121/122/121 257/2/121 122/123/121
f 122/123/122 257/2/122 123/124/122
f 123/124/123 257/2/123 124/125/123
f 124/125/124 257/2/124 125/126/124
f 125/126/125 257/2/125 126/127/125
f 126/127/126 257/2/126 127/128/126
f 127/128/127 257/2/127 128/129/127
f 128/129/128 257/2/128 129/130/128
f 129/130/129 257/2/129 130/131/129
f 130/131/130 257/2/130 131/132/130
f 131/132/131 257/2/131 132/133/131
f 132/133/132 257/2/132 133/134/132
f 133/134/133 257/2/133 134/135/133
f 134/135/134 257/2/134 135/136/134
f 135/136/135 257/2/135 136/137/135
f 136/137/136 257/2/136 137/138/136
f 137/138/137 257/2/137 138/139/137
f 138/139/138 257/2/138 139/140/138
f 139/140/139 257/2/139 140/141/139
f 140/141/140 257/2/140 141/142/140
f 141/142/141 257/2/141 142/143/141
f 142/143/142 257/2/142 143/144/142
f 143/144/143 257/2/143 144/145/143
f 144/145/144 257/2/144 145/146/144
f 145/146/145 257/2/145 146/147/145
f 146/147/146 257/2/146 147/148/146
f 147/148/147 257/2/147 148/149/147
f 148/149/148 257/2/148 149/150/148
f 149/150/149 257/2/149 150/151/149
f 150/151/150 257/2/150 151/152/150
f 151/152/151 257/2/151 152/153/151
f 152/153/152 257/2/152 153/154/152
f 153/154/153 257/2/153 154/155/153
f 154/155/154 257/2/154 155/156/154
f 155/156/155 257/2/155 156/157/155
f 156/157/156 257/2/156 157/158/156
f 157/158/157 257/2/157 158/159/157
f 158/159/158 257/2/158 159/160/158
f 159/160/159 257/2/159 160/161/159
f 160/161/160 257/2/160 161/162/160
f 161/162/161 257/2/161 162/163/161
f 162/163/162 257/2/162 163/164/162
f 163/164/163 257/2/163 164/165/163
f 164/165/164 257/2/164 165/166/164
f 165/166/165 257/2/165 166/167/165
f 166/167/166 257/2/166 167/168/166
f 167/168/167 257/2/167 168/169/167
f 168/169/168 257/2/168 169/170/168
f 169/170/169 257/2/169 170/171/169
f 170/171/170 257/2/170 171/172/170
f 171/172/171 257/2/171 172/173/171
f 172/173/172 257/2/172 173/174/172
f 173/174/173 257/2/173 174/175/173
f 174/175/174 257/2/174 175/176/174
f 175/176/175 257/2/175 176/177/175
f 176/177/176 257/2/176 177/178/176
f 177/178/177 257/2/177 178/179/177
f 178/179/178 257/2/178 179/180/178
f 179/180/179 257/2/179 180/181/179
f 180/181/180 257/2/180 181/182/180
f 181/182/181 257/2/181 182/183/181
f 182/183/182 257/2/182 183/184/182
f 183/184/183 257/2/183 184/185/183
f 184/185/184 257/2/184 185/186/184
f 185/186/185 257/2/185 186/187/185
f 186/187/186 257/2/186 187/188/186
f 187/188/187 257/2/187 188/189/187
f 188/189/188 257/2/188 189/190/188
f 189/190/189 257/2/189 190/191/189
f 190/191/190 257/2/190 191/192/190
f 191/192/191 257/2/191 192/193/191
f 192/193/192 257/2/192 193/194/192
f 193/194/193 257/2/193 194/195/193
f 194/195/194 257/2/194 195/196/194
f 195/196/195 257/2/195 196/197/195
f 196/197/196 257/2/196 197/198/196
f 197/198/197 257/2/197 198/199/197
f 198/199/198 257/2/198 199/200/198
f 199/200/199 257/2/199 200/201/199
f 200/201/200 257/2/200 201/202/200
f 201/202/201 257/2/201 202/203/201
f 202/203/202 257/2/202 203/204/202
f 203/204/203 257/2/203 204/205/203
f 204/205/204 257/2/204 205/206/204
f 205/206/205 257/2/205 206/207/205
f 206/207/206 257/2/206 207/208/206
f 207/208/207 257/2/207 208/209/207
f 208/209/208 257/2/208 209/210/208
f 209/210/209 257/2/209 210/211/209
f 210/211/210 257/2/210 211/212/210
f 211/212/211 257/2/211 212/213/211
f 212/213/212 257/2/212 213/214/212
f 213/214/213 257/2/213 214/215/213
f 214/215/214 257/2/214 215/216/214
f 215/216/215 257/2/215 216/217/215
f 216/217/216 257/2/216 217/218/216
f 217/218/217 257/2/217 218/219/217
f 218/219/218 257/2/218 219/220/218
f 219/220/219 257/2/219 220/221/219
f 220/221/220 257/2/220 221/222/220
f 221/222/221 257/2/221 222/223/221
f 222/223/222 257/2/222 223/224/222
f 223/224/223 257/2/223 224/225/223
f 224/225/224 257/2/224 225/226/224
f 225/226/225 257/2/225 226/227/225
f 226/227/226 257/2/226 227/228/226
f 227/228/227 257/2/227 228/229/227
f 228/229/228 257/2/228 229/230/228
f 229/230/229 257/2/229 230/231/229
f 230/231/230 257/2/230 231/232/230
f 231/232/231 257/2/231 232/233/231
f 232/233/232 257/2/232 233/234/232
f 233/234/233 257/2/233 234/235/233
f 234/235/234 257/2/234 235/236/234
f 235/236/235 257/2/235 236/237/235
f 236/237/236 257/2/236 237/238/236
f 237/238/237 257/2/237 238/239/237
f 238/239/238 257/2/238 239/240/238
f 239/240/239 257/2/239 240/241/239
f 240/241/240 257/2/240 241/242/240
f 241/242/241 257/2/241 242/243/241
f 242/243/242 257/2/242 243/244/242
f 243/244/243 257/2/243 244/245/243
f 244/245/244 257/2/244 245/246/244
f 245/246/245 257/2/245 246/247/245
f 246/247/246 257/2/246 247/248/246
f 247/248/247 257/2/247 248/249/247
f 248/249/248 257/2/248 249/250/248
f 249/250/249 257/2/249 250/251/249
f 250/251/250 257/2/250 251/252/250
f 251/252/251 257/2/251 252/253/251
f 252/253/252 257/2/252 253/254/252
f 253/254/253 257/2/253 254/255/253
f 254/255/254 257/2/254 255/256/254
f 1/257/255 2/258/255 3/259/255 4/260/255 5/261/255 6/262/255 7/263/255 8/264/255 9/265/255 10/266/255 11/267/255 12/268/255 13/269/255 14/270/255 15/271/255 16/272/255 17/273/255 18/274/255 19/275/255 20/276/255 21/277/255 22/278/255 23/279/255 24/280/255 25/281/255 26/282/255 27/283/255 28/284/255 29/285/255 30/286/255 31/287/255 32/288/255 33/289/255 34/290/255 35/291/255 36/292/255 37/293/255 38/294/255 39/295/255 40/296/255 41/297/255 42/298/255 43/299/255 44/300/255 45/301/255 46/302/255 47/303/255 48/304/255 49/305/255 50/306/255 51/307/255 52/308/255 53/309/255 54/310/255 55/311/255 56/312/255 57/313/255 58/314/255 59/315/255 60/316/255 61/317/255 62/318/255 63/319/255 64/320/255 65/321/255 66/322/255 67/323/255 68/324/255 69/325/255 70/326/255 71/327/255 72/328/255 73/329/255 74/330/255 75/331/255 76/332/255 77/333/255 78/334/255 79/335/255 80/336/255 81/337/255 82/338/255 83/339/255 84/340/255 85/341/255 86/342/255 87/343/255 88/344/255 89/345/255 90/346/255 91/347/255 92/348/255 93/349/255 94/350/255 95/351/255 96/352/255 97/353/255 98/354/255 99/355/255 100/356/255 101/357/255 102/358/255 103/359/255 104/360/255 105/361/255 106/362/255 107/363/255 108/364/255 109/365/255 110/366/255 111/367/255 112/368/255 113/369/255 114/370/255 115/371/255 116/372/255 117/373/255 118/374/255 119/375/255 120/376/255 121/377/255 122/378/255 123/379/255 124/380/255 125/381/255 126/382/255 127/383/255 128/384/255 129/385/255 130/386/255 131/387/255 132/388/255 133/389/255 134/390/255 135/391/255 136/392/255 137/393/255 138/394/255 139/395/255 140/396/255 141/397/255 142/398/255 143/399/255 144/400/255 145/401/255 146/402/255 147/403/255 148/404/255 149/405/255 150/406/255 151/407/255 152/408/255 153/409/255 154/410/255 155/411/255 156/412/255 157/413/255 158/414/255 159/415/255 160/416/255 161/417/255 162/418/255 163/419/255 164/420/255 165/421/255 166/422/255 167/423/255 168/424/255 169/425/255 170/426/255 171/427/255 172/428/255 173/429/255 174/430/255 175/431/255 176/432/255 177/433/255 178/434/255 179/435/255 180/436/255 181/437/255 182/438/255 183/439/255 184/440/255 185/441/255 186/442/255 187/443/255 188/444/255 189/445/255 190/446/255 191/447/255 192/448/255 193/449/255 194/450/255 195/451/255 196/452/255 197/453/255 198/454/255 199/455/255 200/456/255 201/457/255 202/458/255 203/459/255 204/460/255 205/461/255 206/462/255 207/463/255 208/464/255 209/465/255 210/466/255 211/467/255 212/468/255 213/469/255 214/470/255 215/471/255 216/472/255 217/473/255 218/474/255 219/475/255 220/476/255 221/477/255 222/478/255 223/479/255 224/480/255 225/481/255 226/482/255 227/483/255 228/484/255 229/485/255 230/486/255 231/487/255 232/488/255 233/489/255 234/490/255 235/491/255 236/492/255 237/493/255 238/494/255 239/495/255 240/496/255 241/497/255 242/498/255 243/499/255 244/500/255 245/501/255 246/502/255 247/503/255 248/504/255 249/505/255 250/506/255 251/507/255 252/508/255 253/509/255 254/510/255 255/511/255 256/512/255
f 255/256/256 257/2/256 256/513/256
f 256/513/257 257/2/257 1/1/257
