# Blender 4.2.1 LTS
# www.blender.org
o Sphere_4
v 0.000000 0.980785 -0.195090
v 0.000000 0.923880 -0.382683
v 0.000000 0.707107 -0.707107
v 0.000000 0.382683 -0.923880
v 0.000000 0.195090 -0.980785
v 0.000000 -0.195090 -0.980785
v 0.000000 -0.555570 -0.831470
v 0.000000 -0.831470 -0.555570
v 0.000000 -0.923880 -0.382683
v 0.000000 -0.980785 -0.195090
v 0.074658 0.980785 -0.180240
v 0.146447 0.923880 -0.353553
v 0.212608 0.831470 -0.513280
v 0.270598 0.707107 -0.653281
v 0.318190 0.555570 -0.768178
v 0.353553 0.382683 -0.853553
v 0.375330 0.195090 -0.906127
v 0.382683 0.000000 -0.923880
v 0.375330 -0.195090 -0.906127
v 0.353553 -0.382683 -0.853553
v 0.318190 -0.555570 -0.768178
v 0.270598 -0.707107 -0.653281
v 0.212608 -0.831470 -0.513280
v 0.146447 -0.923880 -0.353553
v 0.074658 -0.980785 -0.180240
v 0.137950 0.980785 -0.137950
v 0.270598 0.923880 -0.270598
v 0.392848 0.831470 -0.392847
v 0.500000 0.707107 -0.500000
v 0.587938 0.555570 -0.587938
v 0.653282 0.382683 -0.653281
v 0.693520 0.195090 -0.693520
v 0.707107 0.000000 -0.707107
v 0.693520 -0.195090 -0.693520
v 0.653282 -0.382683 -0.653281
v 0.587938 -0.555570 -0.587938
v 0.500000 -0.707107 -0.500000
v 0.392848 -0.831470 -0.392847
v 0.270598 -0.923880 -0.270598
v 0.137950 -0.980785 -0.137950
v 0.180240 0.980785 -0.074658
v 0.353553 0.923880 -0.146447
v 0.513280 0.831470 -0.212608
v 0.653281 0.707107 -0.270598
v 0.768178 0.555570 -0.318190
v 0.853553 0.382683 -0.353553
v 0.906127 0.195090 -0.375330
v 0.923880 0.000000 -0.382683
v 0.906127 -0.195090 -0.375330
v 0.853553 -0.382683 -0.353553
v 0.768178 -0.555570 -0.318190
v 0.653281 -0.707107 -0.270598
v 0.513280 -0.831470 -0.212608
v 0.353553 -0.923880 -0.146447
v 0.180240 -0.980785 -0.074658
v 0.195090 0.980785 0.000000
v 0.382683 0.923880 0.000000
v 0.555570 0.831470 0.000000
v 0.707107 0.707107 0.000000
v 0.831470 0.555570 0.000000
v 0.923880 0.382683 0.000000
v 0.980785 0.195090 0.000000
v 1.000000 0.000000 0.000000
v 0.980785 -0.195090 0.000000
v 0.923880 -0.382683 0.000000
v 0.831470 -0.555570 0.000000
v 0.707107 -0.707107 0.000000
v 0.555570 -0.831470 0.000000
v 0.382683 -0.923880 0.000000
v 0.195090 -0.980785 0.000000
v 0.180240 0.980785 0.074658
v 0.353553 0.923880 0.146447
v 0.513280 0.831470 0.212608
v 0.653281 0.707107 0.270598
v 0.768178 0.555570 0.318190
v 0.853553 0.382683 0.353554
v 0.906127 0.195090 0.375330
v 0.923879 0.000000 0.382684
v 0.906127 -0.195090 0.375330
v 0.853553 -0.382683 0.353554
v 0.768178 -0.555570 0.318190
v 0.653281 -0.707107 0.270598
v 0.513280 -0.831470 0.212608
v 0.353553 -0.923880 0.146447
v 0.180240 -0.980785 0.074658
v 0.137950 0.980785 0.137950
v 0.270598 0.923880 0.270598
v 0.392847 0.831470 0.392848
v 0.500000 0.707107 0.500000
v 0.587938 0.555570 0.587938
v 0.653281 0.382683 0.653282
v 0.693520 0.195090 0.693520
v 0.707107 0.000000 0.707107
v 0.693520 -0.195090 0.693520
v 0.653281 -0.382683 0.653282
v 0.587938 -0.555570 0.587938
v 0.500000 -0.707107 0.500000
v 0.392847 -0.831470 0.392848
v 0.270598 -0.923880 0.270598
v 0.137950 -0.980785 0.137950
v 0.074658 0.980785 0.180240
v 0.146447 0.923880 0.353553
v 0.212607 0.831470 0.513280
v 0.270598 0.707107 0.653281
v 0.318189 0.555570 0.768178
v 0.353553 0.382683 0.853553
v 0.375330 0.195090 0.906127
v 0.382683 0.000000 0.923880
v 0.375330 -0.195090 0.906127
v 0.353553 -0.382683 0.853553
v 0.318189 -0.555570 0.768178
v 0.270598 -0.707107 0.653281
v 0.212607 -0.831470 0.513280
v 0.146447 -0.923880 0.353553
v 0.074658 -0.980785 0.180240
v -0.000000 0.980785 0.195090
v -0.000000 0.923880 0.382683
v -0.000000 0.831470 0.555570
v -0.000000 0.707107 0.707107
v -0.000000 0.555570 0.831469
v -0.000000 0.382683 0.923879
v -0.000000 0.195090 0.980785
v -0.000000 0.000000 1.000000
v -0.000000 -0.195090 0.980785
v -0.000000 -0.382683 0.923879
v -0.000000 -0.555570 0.831469
v -0.000000 -0.707107 0.707107
v -0.000000 -0.831470 0.555570
v -0.000000 -0.923880 0.382683
v -0.000000 -0.980785 0.195090
v -0.074658 0.980785 0.180240
v -0.146447 0.923880 0.353553
v -0.212608 0.831470 0.513280
v -0.270598 0.707107 0.653281
v -0.318190 0.555570 0.768178
v -0.353554 0.382683 0.853553
v -0.375331 0.195090 0.906127
v -0.382684 0.000000 0.923879
v -0.375331 -0.195090 0.906127
v -0.353554 -0.382683 0.853553
v -0.318190 -0.555570 0.768178
v -0.270598 -0.707107 0.653281
v -0.212608 -0.831470 0.513280
v -0.146447 -0.923880 0.353553
v -0.074658 -0.980785 0.180240
v 0.000000 -1.000000 0.000000
v -0.137950 0.980785 0.137950
v -0.270598 0.923880 0.270598
v -0.392848 0.831470 0.392847
v -0.500000 0.707107 0.500000
v -0.587938 0.555570 0.587938
v -0.653282 0.382683 0.653281
v -0.693520 0.195090 0.693520
v -0.707107 0.000000 0.707106
v -0.693520 -0.195090 0.693520
v -0.653282 -0.382683 0.653281
v -0.587938 -0.555570 0.587938
v -0.500000 -0.707107 0.500000
v -0.392848 -0.831470 0.392847
v -0.270598 -0.923880 0.270598
v -0.137950 -0.980785 0.137950
v -0.180240 0.980785 0.074658
v -0.353553 0.923880 0.146446
v -0.513280 0.831470 0.212607
v -0.653281 0.707107 0.270598
v -0.768178 0.555570 0.318189
v -0.853553 0.382683 0.353553
v -0.906127 0.195090 0.375330
v -0.923880 0.000000 0.382683
v -0.906127 -0.195090 0.375330
v -0.853553 -0.382683 0.353553
v -0.768178 -0.555570 0.318189
v -0.653281 -0.707107 0.270598
v -0.513280 -0.831470 0.212607
v -0.353553 -0.923880 0.146446
v -0.180240 -0.980785 0.074658
v 0.000000 1.000000 0.000000
v -0.195090 0.980785 -0.000000
v -0.382683 0.923880 -0.000000
v -0.555570 0.831470 -0.000000
v -0.707107 0.707107 -0.000000
v -0.831469 0.555570 -0.000000
v -0.923879 0.382683 -0.000000
v -0.980785 0.195090 -0.000000
v -1.000000 0.000000 -0.000001
v -0.980785 -0.195090 -0.000000
v -0.923879 -0.382683 -0.000000
v -0.831469 -0.555570 -0.000000
v -0.707107 -0.707107 -0.000000
v -0.555570 -0.831470 -0.000000
v -0.382683 -0.923880 -0.000000
v -0.195090 -0.980785 -0.000000
v -0.180240 0.980785 -0.074658
v -0.353553 0.923880 -0.146447
v -0.513280 0.831470 -0.212608
v -0.653281 0.707107 -0.270598
v -0.768178 0.555570 -0.318190
v -0.853553 0.382683 -0.353554
v -0.906127 0.195090 -0.375331
v -0.923879 0.000000 -0.382684
v -0.906127 -0.195090 -0.375331
v -0.853553 -0.382683 -0.353554
v -0.768178 -0.555570 -0.318190
v -0.653281 -0.707107 -0.270598
v -0.513280 -0.831470 -0.212608
v -0.353553 -0.923880 -0.146447
v -0.180240 -0.980785 -0.074658
v -0.137950 0.980785 -0.137950
v -0.270598 0.923880 -0.270598
v -0.392847 0.831470 -0.392848
v -0.500000 0.707107 -0.500000
v -0.587937 0.555570 -0.587938
v -0.653281 0.382683 -0.653282
v -0.693519 0.195090 -0.693520
v -0.707106 0.000000 -0.707107
v -0.693519 -0.195090 -0.693520
v -0.653281 -0.382683 -0.653282
v -0.587937 -0.555570 -0.587938
v -0.500000 -0.707107 -0.500000
v -0.392847 -0.831470 -0.392848
v -0.270598 -0.923880 -0.270598
v -0.137950 -0.980785 -0.137950
v -0.074658 0.980785 -0.180240
v -0.146446 0.923880 -0.353554
v -0.212607 0.831470 -0.513280
v -0.270598 0.707107 -0.653281
v -0.318189 0.555570 -0.768178
v -0.353553 0.382683 -0.853553
v -0.375330 0.195090 -0.906127
v -0.382683 0.000000 -0.923880
v -0.375330 -0.195090 -0.906127
v -0.353553 -0.382683 -0.853553
v -0.318189 -0.555570 -0.768178
v -0.270598 -0.707107 -0.653281
v -0.212607 -0.831470 -0.513280
v -0.146446 -0.923880 -0.353554
v -0.074658 -0.980785 -0.180240
v 0.000000 0.831470 -0.555570
v 0.000000 0.555570 -0.831469
v 0.000001 0.000000 -1.000000
v 0.000001 -0.382683 -0.923879
v 0.000000 -0.707107 -0.707107
vn 0.0576 0.9553 -0.2898
vn 0.1870 -0.2852 -0.9401
vn 0.0934 0.8781 -0.4693
vn 0.1728 -0.4643 -0.8687
vn 0.1252 0.7669 -0.6294
vn 0.1520 -0.6270 -0.7640
vn 0.1520 0.6270 -0.7640
vn 0.1252 -0.7669 -0.6294
vn 0.1728 0.4643 -0.8687
vn 0.0934 -0.8781 -0.4693
vn 0.1870 0.2852 -0.9401
vn 0.0576 -0.9553 -0.2898
vn 0.1942 0.0962 -0.9762
vn 0.0195 0.9950 -0.0980
vn 0.0195 -0.9950 -0.0980
vn 0.1942 -0.0962 -0.9762
vn 0.5530 0.0962 -0.8276
vn 0.0555 0.9950 -0.0831
vn 0.0555 -0.9950 -0.0831
vn 0.5530 -0.0962 -0.8276
vn 0.1642 0.9553 -0.2457
vn 0.5325 -0.2852 -0.7969
vn 0.2659 0.8781 -0.3979
vn 0.4921 -0.4643 -0.7364
vn 0.3565 0.7669 -0.5336
vn 0.4328 -0.6270 -0.6477
vn 0.4328 0.6270 -0.6477
vn 0.3565 -0.7669 -0.5336
vn 0.4921 0.4643 -0.7364
vn 0.2659 -0.8781 -0.3979
vn 0.5325 0.2852 -0.7969
vn 0.1642 -0.9553 -0.2457
vn 0.6477 -0.6270 -0.4328
vn 0.6477 0.6270 -0.4328
vn 0.5336 -0.7669 -0.3565
vn 0.7364 0.4643 -0.4921
vn 0.3979 -0.8781 -0.2659
vn 0.7969 0.2852 -0.5325
vn 0.2457 -0.9553 -0.1642
vn 0.8276 0.0962 -0.5530
vn 0.0831 0.9950 -0.0555
vn 0.0831 -0.9950 -0.0555
vn 0.8276 -0.0962 -0.5530
vn 0.2457 0.9553 -0.1642
vn 0.7969 -0.2852 -0.5325
vn 0.3979 0.8781 -0.2659
vn 0.7364 -0.4643 -0.4921
vn 0.5336 0.7669 -0.3565
vn 0.0980 -0.9950 -0.0195
vn 0.9762 -0.0962 -0.1942
vn 0.2898 0.9553 -0.0576
vn 0.9401 -0.2852 -0.1870
vn 0.4693 0.8781 -0.0934
vn 0.8687 -0.4643 -0.1728
vn 0.6294 0.7669 -0.1252
vn 0.7640 -0.6270 -0.1520
vn 0.7640 0.6270 -0.1520
vn 0.6294 -0.7669 -0.1252
vn 0.8687 0.4643 -0.1728
vn 0.4693 -0.8781 -0.0934
vn 0.9401 0.2852 -0.1870
vn 0.2898 -0.9553 -0.0576
vn 0.9762 0.0962 -0.1942
vn 0.0980 0.9950 -0.0195
vn 0.6294 -0.7669 0.1252
vn 0.8687 0.4643 0.1728
vn 0.4693 -0.8781 0.0934
vn 0.9401 0.2852 0.1870
vn 0.2898 -0.9553 0.0576
vn 0.9762 0.0962 0.1942
vn 0.0980 0.9950 0.0195
vn 0.0980 -0.9950 0.0195
vn 0.9762 -0.0962 0.1942
vn 0.2898 0.9553 0.0576
vn 0.9401 -0.2852 0.1870
vn 0.4693 0.8781 0.0934
vn 0.8687 -0.4643 0.1728
vn 0.6294 0.7669 0.1252
vn 0.7640 -0.6270 0.1520
vn 0.7640 0.6270 0.1520
vn 0.2457 0.9553 0.1642
vn 0.7969 -0.2852 0.5325
vn 0.3979 0.8781 0.2659
vn 0.7364 -0.4643 0.4921
vn 0.5336 0.7669 0.3565
vn 0.6477 -0.6270 0.4328
vn 0.6477 0.6270 0.4328
vn 0.5336 -0.7669 0.3565
vn 0.7364 0.4643 0.4921
vn 0.3979 -0.8781 0.2659
vn 0.7969 0.2852 0.5325
vn 0.2457 -0.9553 0.1642
vn 0.8276 0.0962 0.5530
vn 0.0831 0.9950 0.0555
vn 0.0831 -0.9950 0.0555
vn 0.8276 -0.0962 0.5530
vn 0.4921 0.4643 0.7364
vn 0.2659 -0.8781 0.3979
vn 0.5325 0.2852 0.7969
vn 0.1642 -0.9553 0.2457
vn 0.5530 0.0962 0.8276
vn 0.0555 0.9950 0.0831
vn 0.0555 -0.9950 0.0831
vn 0.5530 -0.0962 0.8276
vn 0.1642 0.9553 0.2457
vn 0.5325 -0.2852 0.7969
vn 0.2659 0.8781 0.3979
vn 0.4921 -0.4643 0.7364
vn 0.3565 0.7669 0.5336
vn 0.4328 -0.6270 0.6477
vn 0.4328 0.6270 0.6477
vn 0.3565 -0.7669 0.5336
vn 0.1870 -0.2852 0.9401
vn 0.0934 0.8781 0.4693
vn 0.1728 -0.4643 0.8687
vn 0.1252 0.7669 0.6294
vn 0.1520 -0.6270 0.7640
vn 0.1520 0.6270 0.7640
vn 0.1252 -0.7669 0.6294
vn 0.1728 0.4643 0.8687
vn 0.0934 -0.8781 0.4693
vn 0.1870 0.2852 0.9401
vn 0.0576 -0.9553 0.2898
vn 0.1942 0.0962 0.9762
vn 0.0195 0.9950 0.0980
vn 0.0195 -0.9950 0.0980
vn 0.1942 -0.0962 0.9762
vn 0.0576 0.9553 0.2898
vn -0.0934 -0.8781 0.4693
vn -0.1870 0.2852 0.9401
vn -0.0576 -0.9553 0.2898
vn -0.1942 0.0962 0.9762
vn -0.0195 0.9950 0.0980
vn -0.0195 -0.9950 0.0980
vn -0.1942 -0.0962 0.9762
vn -0.0576 0.9553 0.2898
vn -0.1870 -0.2852 0.9401
vn -0.0934 0.8781 0.4693
vn -0.1728 -0.4643 0.8687
vn -0.1252 0.7669 0.6294
vn -0.1520 -0.6270 0.7640
vn -0.1520 0.6270 0.7640
vn -0.1252 -0.7669 0.6294
vn -0.1728 0.4643 0.8687
vn -0.2659 0.8781 0.3979
vn -0.4921 -0.4643 0.7364
vn -0.3565 0.7669 0.5336
vn -0.4328 -0.6270 0.6477
vn -0.4328 0.6270 0.6477
vn -0.3565 -0.7669 0.5336
vn -0.4921 0.4643 0.7364
vn -0.2659 -0.8781 0.3979
vn -0.5325 0.2852 0.7969
vn -0.1642 -0.9553 0.2457
vn -0.5530 0.0962 0.8276
vn -0.0555 0.9950 0.0831
vn -0.0555 -0.9950 0.0831
vn -0.5530 -0.0962 0.8276
vn -0.1642 0.9553 0.2457
vn -0.5325 -0.2852 0.7969
vn -0.7969 0.2852 0.5325
vn -0.2457 -0.9553 0.1642
vn -0.8276 0.0962 0.5530
vn -0.0831 0.9950 0.0555
vn -0.0831 -0.9950 0.0555
vn -0.8276 -0.0962 0.5530
vn -0.2457 0.9553 0.1642
vn -0.7969 -0.2852 0.5325
vn -0.3979 0.8781 0.2659
vn -0.7364 -0.4643 0.4921
vn -0.5336 0.7669 0.3565
vn -0.6477 -0.6270 0.4328
vn -0.6477 0.6270 0.4328
vn -0.5336 -0.7669 0.3565
vn -0.7364 0.4643 0.4921
vn -0.3979 -0.8781 0.2659
vn -0.8687 -0.4643 0.1728
vn -0.6294 0.7669 0.1252
vn -0.7640 -0.6270 0.1520
vn -0.7640 0.6270 0.1520
vn -0.6294 -0.7669 0.1252
vn -0.8687 0.4643 0.1728
vn -0.4693 -0.8781 0.0934
vn -0.9401 0.2852 0.1870
vn -0.2898 -0.9553 0.0576
vn -0.9762 0.0962 0.1942
vn -0.0980 0.9950 0.0195
vn -0.0980 -0.9950 0.0195
vn -0.9762 -0.0962 0.1942
vn -0.2898 0.9553 0.0576
vn -0.9401 -0.2852 0.1870
vn -0.4693 0.8781 0.0934
vn -0.2898 -0.9553 -0.0576
vn -0.9762 0.0962 -0.1942
vn -0.0980 0.9950 -0.0195
vn -0.0980 -0.9950 -0.0195
vn -0.9762 -0.0962 -0.1942
vn -0.2898 0.9553 -0.0576
vn -0.9401 -0.2852 -0.1870
vn -0.4693 0.8781 -0.0934
vn -0.8687 -0.4643 -0.1728
vn -0.6294 0.7669 -0.1252
vn -0.7640 -0.6270 -0.1520
vn -0.7640 0.6270 -0.1520
vn -0.6294 -0.7669 -0.1252
vn -0.8687 0.4643 -0.1728
vn -0.4693 -0.8781 -0.0934
vn -0.9401 0.2852 -0.1870
vn -0.6477 -0.6270 -0.4328
vn -0.6477 0.6270 -0.4328
vn -0.5336 -0.7669 -0.3565
vn -0.7364 0.4643 -0.4921
vn -0.3979 -0.8781 -0.2659
vn -0.7969 0.2852 -0.5325
vn -0.2457 -0.9553 -0.1642
vn -0.8276 0.0962 -0.5530
vn -0.0831 0.9950 -0.0555
vn -0.0831 -0.9950 -0.0555
vn -0.8276 -0.0962 -0.5530
vn -0.2457 0.9553 -0.1642
vn -0.7969 -0.2852 -0.5325
vn -0.3979 0.8781 -0.2659
vn -0.7364 -0.4643 -0.4921
vn -0.5336 0.7669 -0.3565
vn -0.0555 0.9950 -0.0831
vn -0.0555 -0.9950 -0.0831
vn -0.5530 -0.0962 -0.8276
vn -0.1642 0.9553 -0.2457
vn -0.5325 -0.2852 -0.7969
vn -0.2659 0.8781 -0.3979
vn -0.4921 -0.4643 -0.7364
vn -0.3565 0.7669 -0.5336
vn -0.4328 -0.6270 -0.6477
vn -0.4328 0.6270 -0.6477
vn -0.3565 -0.7669 -0.5336
vn -0.4921 0.4643 -0.7364
vn -0.2659 -0.8781 -0.3979
vn -0.5325 0.2852 -0.7969
vn -0.1642 -0.9553 -0.2457
vn -0.5530 0.0962 -0.8276
vn -0.1520 0.6270 -0.7640
vn -0.1252 -0.7669 -0.6294
vn -0.1728 0.4643 -0.8687
vn -0.0934 -0.8781 -0.4693
vn -0.1870 0.2852 -0.9401
vn -0.0576 -0.9553 -0.2898
vn -0.1942 0.0962 -0.9762
vn -0.0195 0.9950 -0.0980
vn -0.0195 -0.9950 -0.0980
vn -0.1942 -0.0962 -0.9762
vn -0.0576 0.9553 -0.2898
vn -0.1870 -0.2852 -0.9401
vn -0.0934 0.8781 -0.4693
vn -0.1728 -0.4643 -0.8687
vn -0.1252 0.7669 -0.6294
vn -0.1520 -0.6270 -0.7640
vt 0.750000 0.875000
vt 0.750000 0.937500
vt 0.687500 0.937500
vt 0.687500 0.875000
vt 0.750000 0.375000
vt 0.750000 0.437500
vt 0.687500 0.437500
vt 0.687500 0.375000
vt 0.750000 0.812500
vt 0.687500 0.812500
vt 0.750000 0.312500
vt 0.687500 0.312500
vt 0.750000 0.750000
vt 0.687500 0.750000
vt 0.750000 0.250000
vt 0.687500 0.250000
vt 0.750000 0.687500
vt 0.687500 0.687500
vt 0.750000 0.187500
vt 0.687500 0.187500
vt 0.750000 0.625000
vt 0.687500 0.625000
vt 0.750000 0.125000
vt 0.687500 0.125000
vt 0.750000 0.562500
vt 0.687500 0.562500
vt 0.750000 0.062500
vt 0.687500 0.062500
vt 0.750000 0.500000
vt 0.687500 0.500000
vt 0.718750 1.000000
vt 0.718750 0.000000
vt 0.625000 0.562500
vt 0.625000 0.500000
vt 0.656250 1.000000
vt 0.625000 0.937500
vt 0.656250 0.000000
vt 0.625000 0.062500
vt 0.625000 0.437500
vt 0.625000 0.875000
vt 0.625000 0.375000
vt 0.625000 0.812500
vt 0.625000 0.312500
vt 0.625000 0.750000
vt 0.625000 0.250000
vt 0.625000 0.687500
vt 0.625000 0.187500
vt 0.625000 0.625000
vt 0.625000 0.125000
vt 0.562500 0.312500
vt 0.562500 0.250000
vt 0.562500 0.750000
vt 0.562500 0.687500
vt 0.562500 0.187500
vt 0.562500 0.625000
vt 0.562500 0.125000
vt 0.562500 0.562500
vt 0.562500 0.062500
vt 0.562500 0.500000
vt 0.593750 1.000000
vt 0.562500 0.937500
vt 0.593750 0.000000
vt 0.562500 0.437500
vt 0.562500 0.875000
vt 0.562500 0.375000
vt 0.562500 0.812500
vt 0.531250 0.000000
vt 0.500000 0.062500
vt 0.500000 0.500000
vt 0.500000 0.437500
vt 0.500000 0.937500
vt 0.500000 0.875000
vt 0.500000 0.375000
vt 0.500000 0.812500
vt 0.500000 0.312500
vt 0.500000 0.750000
vt 0.500000 0.250000
vt 0.500000 0.687500
vt 0.500000 0.187500
vt 0.500000 0.625000
vt 0.500000 0.125000
vt 0.500000 0.562500
vt 0.531250 1.000000
vt 0.437500 0.250000
vt 0.437500 0.187500
vt 0.437500 0.687500
vt 0.437500 0.625000
vt 0.437500 0.125000
vt 0.437500 0.562500
vt 0.437500 0.062500
vt 0.437500 0.500000
vt 0.468750 1.000000
vt 0.437500 0.937500
vt 0.468750 0.000000
vt 0.437500 0.437500
vt 0.437500 0.875000
vt 0.437500 0.375000
vt 0.437500 0.812500
vt 0.437500 0.312500
vt 0.437500 0.750000
vt 0.375000 0.937500
vt 0.375000 0.875000
vt 0.375000 0.437500
vt 0.375000 0.375000
vt 0.375000 0.812500
vt 0.375000 0.312500
vt 0.375000 0.750000
vt 0.375000 0.250000
vt 0.375000 0.687500
vt 0.375000 0.187500
vt 0.375000 0.625000
vt 0.375000 0.125000
vt 0.375000 0.562500
vt 0.375000 0.062500
vt 0.375000 0.500000
vt 0.406250 1.000000
vt 0.406250 0.000000
vt 0.312500 0.687500
vt 0.312500 0.625000
vt 0.312500 0.187500
vt 0.312500 0.125000
vt 0.312500 0.562500
vt 0.312500 0.062500
vt 0.312500 0.500000
vt 0.343750 1.000000
vt 0.312500 0.937500
vt 0.343750 0.000000
vt 0.312500 0.437500
vt 0.312500 0.875000
vt 0.312500 0.375000
vt 0.312500 0.812500
vt 0.312500 0.312500
vt 0.312500 0.750000
vt 0.312500 0.250000
vt 0.250000 0.437500
vt 0.250000 0.375000
vt 0.250000 0.875000
vt 0.250000 0.812500
vt 0.250000 0.312500
vt 0.250000 0.750000
vt 0.250000 0.250000
vt 0.250000 0.687500
vt 0.250000 0.187500
vt 0.250000 0.625000
vt 0.250000 0.125000
vt 0.250000 0.562500
vt 0.250000 0.062500
vt 0.250000 0.500000
vt 0.281250 1.000000
vt 0.250000 0.937500
vt 0.281250 0.000000
vt 0.187500 0.187500
vt 0.187500 0.125000
vt 0.187500 0.625000
vt 0.187500 0.562500
vt 0.187500 0.062500
vt 0.187500 0.500000
vt 0.218750 1.000000
vt 0.187500 0.937500
vt 0.218750 0.000000
vt 0.187500 0.437500
vt 0.187500 0.875000
vt 0.187500 0.375000
vt 0.187500 0.812500
vt 0.187500 0.312500
vt 0.187500 0.750000
vt 0.187500 0.250000
vt 0.187500 0.687500
vt 0.125000 0.875000
vt 0.125000 0.812500
vt 0.125000 0.375000
vt 0.125000 0.312500
vt 0.125000 0.750000
vt 0.125000 0.250000
vt 0.125000 0.687500
vt 0.125000 0.187500
vt 0.125000 0.625000
vt 0.125000 0.125000
vt 0.125000 0.562500
vt 0.125000 0.062500
vt 0.125000 0.500000
vt 0.156250 1.000000
vt 0.125000 0.937500
vt 0.156250 0.000000
vt 0.125000 0.437500
vt 0.062500 0.625000
vt 0.062500 0.562500
vt 0.062500 0.125000
vt 0.062500 0.062500
vt 0.062500 0.500000
vt 0.093750 1.000000
vt 0.062500 0.937500
vt 0.093750 0.000000
vt 0.062500 0.437500
vt 0.062500 0.875000
vt 0.062500 0.375000
vt 0.062500 0.812500
vt 0.062500 0.312500
vt 0.062500 0.750000
vt 0.062500 0.250000
vt 0.062500 0.687500
vt 0.062500 0.187500
vt 0.000000 0.375000
vt 0.000000 0.312500
vt 0.000000 0.812500
vt 0.000000 0.750000
vt 0.000000 0.250000
vt 0.000000 0.687500
vt 0.000000 0.187500
vt 0.000000 0.625000
vt 0.000000 0.125000
vt 0.000000 0.562500
vt 0.000000 0.062500
vt 0.000000 0.500000
vt 0.031250 1.000000
vt 0.000000 0.937500
vt 0.031250 0.000000
vt 0.000000 0.437500
vt 0.000000 0.875000
vt 1.000000 0.062500
vt 1.000000 0.125000
vt 0.937500 0.125000
vt 0.937500 0.062500
vt 1.000000 0.500000
vt 1.000000 0.562500
vt 0.937500 0.562500
vt 0.937500 0.500000
vt 1.000000 0.937500
vt 0.968750 1.000000
vt 0.937500 0.937500
vt 0.968750 0.000000
vt 1.000000 0.437500
vt 0.937500 0.437500
vt 1.000000 0.875000
vt 0.937500 0.875000
vt 1.000000 0.375000
vt 0.937500 0.375000
vt 1.000000 0.812500
vt 0.937500 0.812500
vt 1.000000 0.312500
vt 0.937500 0.312500
vt 1.000000 0.750000
vt 0.937500 0.750000
vt 1.000000 0.250000
vt 0.937500 0.250000
vt 1.000000 0.687500
vt 0.937500 0.687500
vt 1.000000 0.187500
vt 0.937500 0.187500
vt 1.000000 0.625000
vt 0.937500 0.625000
vt 0.875000 0.312500
vt 0.875000 0.250000
vt 0.875000 0.750000
vt 0.875000 0.687500
vt 0.875000 0.187500
vt 0.875000 0.625000
vt 0.875000 0.125000
vt 0.875000 0.562500
vt 0.875000 0.062500
vt 0.875000 0.500000
vt 0.906250 1.000000
vt 0.875000 0.937500
vt 0.906250 0.000000
vt 0.875000 0.437500
vt 0.875000 0.875000
vt 0.875000 0.375000
vt 0.875000 0.812500
vt 0.843750 1.000000
vt 0.812500 0.937500
vt 0.843750 0.000000
vt 0.812500 0.062500
vt 0.812500 0.500000
vt 0.812500 0.437500
vt 0.812500 0.875000
vt 0.812500 0.375000
vt 0.812500 0.812500
vt 0.812500 0.312500
vt 0.812500 0.750000
vt 0.812500 0.250000
vt 0.812500 0.687500
vt 0.812500 0.187500
vt 0.812500 0.625000
vt 0.812500 0.125000
vt 0.812500 0.562500
vt 0.781250 1.000000
vt 0.781250 0.000000
s 0
f 2/1/1 1/2/1 11/3/1 12/4/1
f 241/5/2 6/6/2 19/7/2 20/8/2
f 238/9/3 2/1/3 12/4/3 13/10/3
f 7/11/4 241/5/4 20/8/4 21/12/4
f 3/13/5 238/9/5 13/10/5 14/14/5
f 242/15/6 7/11/6 21/12/6 22/16/6
f 239/17/7 3/13/7 14/14/7 15/18/7
f 8/19/8 242/15/8 22/16/8 23/20/8
f 4/21/9 239/17/9 15/18/9 16/22/9
f 9/23/10 8/19/10 23/20/10 24/24/10
f 5/25/11 4/21/11 16/22/11 17/26/11
f 10/27/12 9/23/12 24/24/12 25/28/12
f 240/29/13 5/25/13 17/26/13 18/30/13
f 1/2/14 177/31/14 11/3/14
f 146/32/15 10/27/15 25/28/15
f 6/6/16 240/29/16 18/30/16 19/7/16
f 18/30/17 17/26/17 32/33/17 33/34/17
f 11/3/18 177/35/18 26/36/18
f 146/37/19 25/28/19 40/38/19
f 19/7/20 18/30/20 33/34/20 34/39/20
f 12/4/21 11/3/21 26/36/21 27/40/21
f 20/8/22 19/7/22 34/39/22 35/41/22
f 13/10/23 12/4/23 27/40/23 28/42/23
f 21/12/24 20/8/24 35/41/24 36/43/24
f 14/14/25 13/10/25 28/42/25 29/44/25
f 22/16/26 21/12/26 36/43/26 37/45/26
f 15/18/27 14/14/27 29/44/27 30/46/27
f 23/20/28 22/16/28 37/45/28 38/47/28
f 16/22/29 15/18/29 30/46/29 31/48/29
f 24/24/30 23/20/30 38/47/30 39/49/30
f 17/26/31 16/22/31 31/48/31 32/33/31
f 25/28/32 24/24/32 39/49/32 40/38/32
f 37/45/33 36/43/33 51/50/33 52/51/33
f 30/46/34 29/44/34 44/52/34 45/53/34
f 38/47/35 37/45/35 52/51/35 53/54/35
f 31/48/36 30/46/36 45/53/36 46/55/36
f 39/49/37 38/47/37 53/54/37 54/56/37
f 32/33/38 31/48/38 46/55/38 47/57/38
f 40/38/39 39/49/39 54/56/39 55/58/39
f 33/34/40 32/33/40 47/57/40 48/59/40
f 26/36/41 177/60/41 41/61/41
f 146/62/42 40/38/42 55/58/42
f 34/39/43 33/34/43 48/59/43 49/63/43
f 27/40/44 26/36/44 41/61/44 42/64/44
f 35/41/45 34/39/45 49/63/45 50/65/45
f 28/42/46 27/40/46 42/64/46 43/66/46
f 36/43/47 35/41/47 50/65/47 51/50/47
f 29/44/48 28/42/48 43/66/48 44/52/48
f 146/67/49 55/58/49 70/68/49
f 49/63/50 48/59/50 63/69/50 64/70/50
f 42/64/51 41/61/51 56/71/51 57/72/51
f 50/65/52 49/63/52 64/70/52 65/73/52
f 43/66/53 42/64/53 57/72/53 58/74/53
f 51/50/54 50/65/54 65/73/54 66/75/54
f 44/52/55 43/66/55 58/74/55 59/76/55
f 52/51/56 51/50/56 66/75/56 67/77/56
f 45/53/57 44/52/57 59/76/57 60/78/57
f 53/54/58 52/51/58 67/77/58 68/79/58
f 46/55/59 45/53/59 60/78/59 61/80/59
f 54/56/60 53/54/60 68/79/60 69/81/60
f 47/57/61 46/55/61 61/80/61 62/82/61
f 55/58/62 54/56/62 69/81/62 70/68/62
f 48/59/63 47/57/63 62/82/63 63/69/63
f 41/61/64 177/83/64 56/71/64
f 68/79/65 67/77/65 82/84/65 83/85/65
f 61/80/66 60/78/66 75/86/66 76/87/66
f 69/81/67 68/79/67 83/85/67 84/88/67
f 62/82/68 61/80/68 76/87/68 77/89/68
f 70/68/69 69/81/69 84/88/69 85/90/69
f 63/69/70 62/82/70 77/89/70 78/91/70
f 56/71/71 177/92/71 71/93/71
f 146/94/72 70/68/72 85/90/72
f 64/70/73 63/69/73 78/91/73 79/95/73
f 57/72/74 56/71/74 71/93/74 72/96/74
f 65/73/75 64/70/75 79/95/75 80/97/75
f 58/74/76 57/72/76 72/96/76 73/98/76
f 66/75/77 65/73/77 80/97/77 81/99/77
f 59/76/78 58/74/78 73/98/78 74/100/78
f 67/77/79 66/75/79 81/99/79 82/84/79
f 60/78/80 59/76/80 74/100/80 75/86/80
f 72/96/81 71/93/81 86/101/81 87/102/81
f 80/97/82 79/95/82 94/103/82 95/104/82
f 73/98/83 72/96/83 87/102/83 88/105/83
f 81/99/84 80/97/84 95/104/84 96/106/84
f 74/100/85 73/98/85 88/105/85 89/107/85
f 82/84/86 81/99/86 96/106/86 97/108/86
f 75/86/87 74/100/87 89/107/87 90/109/87
f 83/85/88 82/84/88 97/108/88 98/110/88
f 76/87/89 75/86/89 90/109/89 91/111/89
f 84/88/90 83/85/90 98/110/90 99/112/90
f 77/89/91 76/87/91 91/111/91 92/113/91
f 85/90/92 84/88/92 99/112/92 100/114/92
f 78/91/93 77/89/93 92/113/93 93/115/93
f 71/93/94 177/116/94 86/101/94
f 146/117/95 85/90/95 100/114/95
f 79/95/96 78/91/96 93/115/96 94/103/96
f 91/111/97 90/109/97 105/118/97 106/119/97
f 99/112/98 98/110/98 113/120/98 114/121/98
f 92/113/99 91/111/99 106/119/99 107/122/99
f 100/114/100 99/112/100 114/121/100 115/123/100
f 93/115/101 92/113/101 107/122/101 108/124/101
f 86/101/102 177/125/102 101/126/102
f 146/127/103 100/114/103 115/123/103
f 94/103/104 93/115/104 108/124/104 109/128/104
f 87/102/105 86/101/105 101/126/105 102/129/105
f 95/104/106 94/103/106 109/128/106 110/130/106
f 88/105/107 87/102/107 102/129/107 103/131/107
f 96/106/108 95/104/108 110/130/108 111/132/108
f 89/107/109 88/105/109 103/131/109 104/133/109
f 97/108/110 96/106/110 111/132/110 112/134/110
f 90/109/111 89/107/111 104/133/111 105/118/111
f 98/110/112 97/108/112 112/134/112 113/120/112
f 110/130/113 109/128/113 124/135/113 125/136/113
f 103/131/114 102/129/114 117/137/114 118/138/114
f 111/132/115 110/130/115 125/136/115 126/139/115
f 104/133/116 103/131/116 118/138/116 119/140/116
f 112/134/117 111/132/117 126/139/117 127/141/117
f 105/118/118 104/133/118 119/140/118 120/142/118
f 113/120/119 112/134/119 127/141/119 128/143/119
f 106/119/120 105/118/120 120/142/120 121/144/120
f 114/121/121 113/120/121 128/143/121 129/145/121
f 107/122/122 106/119/122 121/144/122 122/146/122
f 115/123/123 114/121/123 129/145/123 130/147/123
f 108/124/124 107/122/124 122/146/124 123/148/124
f 101/126/125 177/149/125 116/150/125
f 146/151/126 115/123/126 130/147/126
f 109/128/127 108/124/127 123/148/127 124/135/127
f 102/129/128 101/126/128 116/150/128 117/137/128
f 129/145/129 128/143/129 143/152/129 144/153/129
f 122/146/130 121/144/130 136/154/130 137/155/130
f 130/147/131 129/145/131 144/153/131 145/156/131
f 123/148/132 122/146/132 137/155/132 138/157/132
f 116/150/133 177/158/133 131/159/133
f 146/160/134 130/147/134 145/156/134
f 124/135/135 123/148/135 138/157/135 139/161/135
f 117/137/136 116/150/136 131/159/136 132/162/136
f 125/136/137 124/135/137 139/161/137 140/163/137
f 118/138/138 117/137/138 132/162/138 133/164/138
f 126/139/139 125/136/139 140/163/139 141/165/139
f 119/140/140 118/138/140 133/164/140 134/166/140
f 127/141/141 126/139/141 141/165/141 142/167/141
f 120/142/142 119/140/142 134/166/142 135/168/142
f 128/143/143 127/141/143 142/167/143 143/152/143
f 121/144/144 120/142/144 135/168/144 136/154/144
f 133/164/145 132/162/145 148/169/145 149/170/145
f 141/165/146 140/163/146 156/171/146 157/172/146
f 134/166/147 133/164/147 149/170/147 150/173/147
f 142/167/148 141/165/148 157/172/148 158/174/148
f 135/168/149 134/166/149 150/173/149 151/175/149
f 143/152/150 142/167/150 158/174/150 159/176/150
f 136/154/151 135/168/151 151/175/151 152/177/151
f 144/153/152 143/152/152 159/176/152 160/178/152
f 137/155/153 136/154/153 152/177/153 153/179/153
f 145/156/154 144/153/154 160/178/154 161/180/154
f 138/157/155 137/155/155 153/179/155 154/181/155
f 131/159/156 177/182/156 147/183/156
f 146/184/157 145/156/157 161/180/157
f 139/161/158 138/157/158 154/181/158 155/185/158
f 132/162/159 131/159/159 147/183/159 148/169/159
f 140/163/160 139/161/160 155/185/160 156/171/160
f 153/179/161 152/177/161 167/186/161 168/187/161
f 161/180/162 160/178/162 175/188/162 176/189/162
f 154/181/163 153/179/163 168/187/163 169/190/163
f 147/183/164 177/191/164 162/192/164
f 146/193/165 161/180/165 176/189/165
f 155/185/166 154/181/166 169/190/166 170/194/166
f 148/169/167 147/183/167 162/192/167 163/195/167
f 156/171/168 155/185/168 170/194/168 171/196/168
f 149/170/169 148/169/169 163/195/169 164/197/169
f 157/172/170 156/171/170 171/196/170 172/198/170
f 150/173/171 149/170/171 164/197/171 165/199/171
f 158/174/172 157/172/172 172/198/172 173/200/172
f 151/175/173 150/173/173 165/199/173 166/201/173
f 159/176/174 158/174/174 173/200/174 174/202/174
f 152/177/175 151/175/175 166/201/175 167/186/175
f 160/178/176 159/176/176 174/202/176 175/188/176
f 172/198/177 171/196/177 187/203/177 188/204/177
f 165/199/178 164/197/178 180/205/178 181/206/178
f 173/200/179 172/198/179 188/204/179 189/207/179
f 166/201/180 165/199/180 181/206/180 182/208/180
f 174/202/181 173/200/181 189/207/181 190/209/181
f 167/186/182 166/201/182 182/208/182 183/210/182
f 175/188/183 174/202/183 190/209/183 191/211/183
f 168/187/184 167/186/184 183/210/184 184/212/184
f 176/189/185 175/188/185 191/211/185 192/213/185
f 169/190/186 168/187/186 184/212/186 185/214/186
f 162/192/187 177/215/187 178/216/187
f 146/217/188 176/189/188 192/213/188
f 170/194/189 169/190/189 185/214/189 186/218/189
f 163/195/190 162/192/190 178/216/190 179/219/190
f 171/196/191 170/194/191 186/218/191 187/203/191
f 164/197/192 163/195/192 179/219/192 180/205/192
f 192/220/193 191/221/193 206/222/193 207/223/193
f 185/224/194 184/225/194 199/226/194 200/227/194
f 178/228/195 177/229/195 193/230/195
f 146/231/196 192/220/196 207/223/196
f 186/232/197 185/224/197 200/227/197 201/233/197
f 179/234/198 178/228/198 193/230/198 194/235/198
f 187/236/199 186/232/199 201/233/199 202/237/199
f 180/238/200 179/234/200 194/235/200 195/239/200
f 188/240/201 187/236/201 202/237/201 203/241/201
f 181/242/202 180/238/202 195/239/202 196/243/202
f 189/244/203 188/240/203 203/241/203 204/245/203
f 182/246/204 181/242/204 196/243/204 197/247/204
f 190/248/205 189/244/205 204/245/205 205/249/205
f 183/250/206 182/246/206 197/247/206 198/251/206
f 191/221/207 190/248/207 205/249/207 206/222/207
f 184/225/208 183/250/208 198/251/208 199/226/208
f 204/245/209 203/241/209 218/252/209 219/253/209
f 197/247/210 196/243/210 211/254/210 212/255/210
f 205/249/211 204/245/211 219/253/211 220/256/211
f 198/251/212 197/247/212 212/255/212 213/257/212
f 206/222/213 205/249/213 220/256/213 221/258/213
f 199/226/214 198/251/214 213/257/214 214/259/214
f 207/223/215 206/222/215 221/258/215 222/260/215
f 200/227/216 199/226/216 214/259/216 215/261/216
f 193/230/217 177/262/217 208/263/217
f 146/264/218 207/223/218 222/260/218
f 201/233/219 200/227/219 215/261/219 216/265/219
f 194/235/220 193/230/220 208/263/220 209/266/220
f 202/237/221 201/233/221 216/265/221 217/267/221
f 195/239/222 194/235/222 209/266/222 210/268/222
f 203/241/223 202/237/223 217/267/223 218/252/223
f 196/243/224 195/239/224 210/268/224 211/254/224
f 208/263/225 177/269/225 223/270/225
f 146/271/226 222/260/226 237/272/226
f 216/265/227 215/261/227 230/273/227 231/274/227
f 209/266/228 208/263/228 223/270/228 224/275/228
f 217/267/229 216/265/229 231/274/229 232/276/229
f 210/268/230 209/266/230 224/275/230 225/277/230
f 218/252/231 217/267/231 232/276/231 233/278/231
f 211/254/232 210/268/232 225/277/232 226/279/232
f 219/253/233 218/252/233 233/278/233 234/280/233
f 212/255/234 211/254/234 226/279/234 227/281/234
f 220/256/235 219/253/235 234/280/235 235/282/235
f 213/257/236 212/255/236 227/281/236 228/283/236
f 221/258/237 220/256/237 235/282/237 236/284/237
f 214/259/238 213/257/238 228/283/238 229/285/238
f 222/260/239 221/258/239 236/284/239 237/272/239
f 215/261/240 214/259/240 229/285/240 230/273/240
f 227/281/241 226/279/241 3/13/241 239/17/241
f 235/282/242 234/280/242 242/15/242 8/19/242
f 228/283/243 227/281/243 239/17/243 4/21/243
f 236/284/244 235/282/244 8/19/244 9/23/244
f 229/285/245 228/283/245 4/21/245 5/25/245
f 237/272/246 236/284/246 9/23/246 10/27/246
f 230/273/247 229/285/247 5/25/247 240/29/247
f 223/270/248 177/286/248 1/2/248
f 146/287/249 237/272/249 10/27/249
f 231/274/250 230/273/250 240/29/250 6/6/250
f 224/275/251 223/270/251 1/2/251 2/1/251
f 232/276/252 231/274/252 6/6/252 241/5/252
f 225/277/253 224/275/253 2/1/253 238/9/253
f 233/278/254 232/276/254 241/5/254 7/11/254
f 226/279/255 225/277/255 238/9/255 3/13/255
f 234/280/256 233/278/256 7/11/256 242/15/256
